<?xml version="1.0" encoding="utf-8"?>
<svg xmlns="http://www.w3.org/2000/svg" xmlns:xlink="http://www.w3.org/1999/xlink" width="672" height="480" viewBox="0 0 2688 1920">
<defs>
  <clipPath id="clip470">
    <rect x="0" y="0" width="2688" height="1920"/>
  </clipPath>
</defs>
<path clip-path="url(#clip470)" d="M0 1920 L2688 1920 L2688 0 L0 0  Z" fill="#ffffff" fill-rule="evenodd" fill-opacity="1"/>
<defs>
  <clipPath id="clip471">
    <rect x="537" y="0" width="1883" height="1883"/>
  </clipPath>
</defs>
<path clip-path="url(#clip470)" d="M159.478 1800.78 L2640.76 1800.78 L2640.76 47.2441 L159.478 47.2441  Z" fill="#ffffff" fill-rule="evenodd" fill-opacity="1"/>
<defs>
  <clipPath id="clip472">
    <rect x="159" y="47" width="2482" height="1755"/>
  </clipPath>
</defs>
<polyline clip-path="url(#clip472)" style="stroke:#000000; stroke-linecap:round; stroke-linejoin:round; stroke-width:2; stroke-opacity:0.1; fill:none" points="653.923,1800.78 653.923,47.2441 "/>
<polyline clip-path="url(#clip472)" style="stroke:#000000; stroke-linecap:round; stroke-linejoin:round; stroke-width:2; stroke-opacity:0.1; fill:none" points="1150.18,1800.78 1150.18,47.2441 "/>
<polyline clip-path="url(#clip472)" style="stroke:#000000; stroke-linecap:round; stroke-linejoin:round; stroke-width:2; stroke-opacity:0.1; fill:none" points="1646.43,1800.78 1646.43,47.2441 "/>
<polyline clip-path="url(#clip472)" style="stroke:#000000; stroke-linecap:round; stroke-linejoin:round; stroke-width:2; stroke-opacity:0.1; fill:none" points="2142.69,1800.78 2142.69,47.2441 "/>
<polyline clip-path="url(#clip472)" style="stroke:#000000; stroke-linecap:round; stroke-linejoin:round; stroke-width:2; stroke-opacity:0.1; fill:none" points="2638.95,1800.78 2638.95,47.2441 "/>
<polyline clip-path="url(#clip470)" style="stroke:#000000; stroke-linecap:round; stroke-linejoin:round; stroke-width:4; stroke-opacity:1; fill:none" points="159.478,1800.78 2640.76,1800.78 "/>
<polyline clip-path="url(#clip470)" style="stroke:#000000; stroke-linecap:round; stroke-linejoin:round; stroke-width:4; stroke-opacity:1; fill:none" points="653.923,1800.78 653.923,1781.88 "/>
<polyline clip-path="url(#clip470)" style="stroke:#000000; stroke-linecap:round; stroke-linejoin:round; stroke-width:4; stroke-opacity:1; fill:none" points="1150.18,1800.78 1150.18,1781.88 "/>
<polyline clip-path="url(#clip470)" style="stroke:#000000; stroke-linecap:round; stroke-linejoin:round; stroke-width:4; stroke-opacity:1; fill:none" points="1646.43,1800.78 1646.43,1781.88 "/>
<polyline clip-path="url(#clip470)" style="stroke:#000000; stroke-linecap:round; stroke-linejoin:round; stroke-width:4; stroke-opacity:1; fill:none" points="2142.69,1800.78 2142.69,1781.88 "/>
<polyline clip-path="url(#clip470)" style="stroke:#000000; stroke-linecap:round; stroke-linejoin:round; stroke-width:4; stroke-opacity:1; fill:none" points="2638.95,1800.78 2638.95,1781.88 "/>
<path clip-path="url(#clip470)" d="M632.106 1834 Q628.495 1834 626.667 1837.57 Q624.861 1841.11 624.861 1848.24 Q624.861 1855.34 626.667 1858.91 Q628.495 1862.45 632.106 1862.45 Q635.741 1862.45 637.546 1858.91 Q639.375 1855.34 639.375 1848.24 Q639.375 1841.11 637.546 1837.57 Q635.741 1834 632.106 1834 M632.106 1830.3 Q637.917 1830.3 640.972 1834.9 Q644.051 1839.49 644.051 1848.24 Q644.051 1856.96 640.972 1861.57 Q637.917 1866.15 632.106 1866.15 Q626.296 1866.15 623.218 1861.57 Q620.162 1856.96 620.162 1848.24 Q620.162 1839.49 623.218 1834.9 Q626.296 1830.3 632.106 1830.3 Z" fill="#000000" fill-rule="nonzero" fill-opacity="1" /><path clip-path="url(#clip470)" d="M652.268 1859.6 L657.153 1859.6 L657.153 1865.48 L652.268 1865.48 L652.268 1859.6 Z" fill="#000000" fill-rule="nonzero" fill-opacity="1" /><path clip-path="url(#clip470)" d="M671.365 1861.55 L687.685 1861.55 L687.685 1865.48 L665.74 1865.48 L665.74 1861.55 Q668.402 1858.79 672.986 1854.16 Q677.592 1849.51 678.773 1848.17 Q681.018 1845.65 681.898 1843.91 Q682.801 1842.15 682.801 1840.46 Q682.801 1837.71 680.856 1835.97 Q678.935 1834.23 675.833 1834.23 Q673.634 1834.23 671.18 1835 Q668.75 1835.76 665.972 1837.31 L665.972 1832.59 Q668.796 1831.46 671.25 1830.88 Q673.703 1830.3 675.74 1830.3 Q681.111 1830.3 684.305 1832.98 Q687.5 1835.67 687.5 1840.16 Q687.5 1842.29 686.689 1844.21 Q685.902 1846.11 683.796 1848.7 Q683.217 1849.37 680.115 1852.59 Q677.014 1855.78 671.365 1861.55 Z" fill="#000000" fill-rule="nonzero" fill-opacity="1" /><path clip-path="url(#clip470)" d="M1127.32 1834 Q1123.71 1834 1121.88 1837.57 Q1120.07 1841.11 1120.07 1848.24 Q1120.07 1855.34 1121.88 1858.91 Q1123.71 1862.45 1127.32 1862.45 Q1130.95 1862.45 1132.76 1858.91 Q1134.59 1855.34 1134.59 1848.24 Q1134.59 1841.11 1132.76 1837.57 Q1130.95 1834 1127.32 1834 M1127.32 1830.3 Q1133.13 1830.3 1136.19 1834.9 Q1139.26 1839.49 1139.26 1848.24 Q1139.26 1856.96 1136.19 1861.57 Q1133.13 1866.15 1127.32 1866.15 Q1121.51 1866.15 1118.43 1861.57 Q1115.38 1856.96 1115.38 1848.24 Q1115.38 1839.49 1118.43 1834.9 Q1121.51 1830.3 1127.32 1830.3 Z" fill="#000000" fill-rule="nonzero" fill-opacity="1" /><path clip-path="url(#clip470)" d="M1147.48 1859.6 L1152.37 1859.6 L1152.37 1865.48 L1147.48 1865.48 L1147.48 1859.6 Z" fill="#000000" fill-rule="nonzero" fill-opacity="1" /><path clip-path="url(#clip470)" d="M1175.4 1835 L1163.59 1853.45 L1175.4 1853.45 L1175.4 1835 M1174.17 1830.92 L1180.05 1830.92 L1180.05 1853.45 L1184.98 1853.45 L1184.98 1857.34 L1180.05 1857.34 L1180.05 1865.48 L1175.4 1865.48 L1175.4 1857.34 L1159.8 1857.34 L1159.8 1852.82 L1174.17 1830.92 Z" fill="#000000" fill-rule="nonzero" fill-opacity="1" /><path clip-path="url(#clip470)" d="M1623.74 1834 Q1620.13 1834 1618.3 1837.57 Q1616.49 1841.11 1616.49 1848.24 Q1616.49 1855.34 1618.3 1858.91 Q1620.13 1862.45 1623.74 1862.45 Q1627.37 1862.45 1629.18 1858.91 Q1631.01 1855.34 1631.01 1848.24 Q1631.01 1841.11 1629.18 1837.57 Q1627.37 1834 1623.74 1834 M1623.74 1830.3 Q1629.55 1830.3 1632.6 1834.9 Q1635.68 1839.49 1635.68 1848.24 Q1635.68 1856.96 1632.6 1861.57 Q1629.55 1866.15 1623.74 1866.15 Q1617.93 1866.15 1614.85 1861.57 Q1611.79 1856.96 1611.79 1848.24 Q1611.79 1839.49 1614.85 1834.9 Q1617.93 1830.3 1623.74 1830.3 Z" fill="#000000" fill-rule="nonzero" fill-opacity="1" /><path clip-path="url(#clip470)" d="M1643.9 1859.6 L1648.78 1859.6 L1648.78 1865.48 L1643.9 1865.48 L1643.9 1859.6 Z" fill="#000000" fill-rule="nonzero" fill-opacity="1" /><path clip-path="url(#clip470)" d="M1669.55 1846.34 Q1666.4 1846.34 1664.55 1848.49 Q1662.72 1850.65 1662.72 1854.4 Q1662.72 1858.12 1664.55 1860.3 Q1666.4 1862.45 1669.55 1862.45 Q1672.7 1862.45 1674.52 1860.3 Q1676.38 1858.12 1676.38 1854.4 Q1676.38 1850.65 1674.52 1848.49 Q1672.7 1846.34 1669.55 1846.34 M1678.83 1831.69 L1678.83 1835.95 Q1677.07 1835.11 1675.27 1834.67 Q1673.48 1834.23 1671.72 1834.23 Q1667.09 1834.23 1664.64 1837.36 Q1662.21 1840.48 1661.86 1846.8 Q1663.23 1844.79 1665.29 1843.72 Q1667.35 1842.64 1669.83 1842.64 Q1675.03 1842.64 1678.04 1845.81 Q1681.08 1848.96 1681.08 1854.4 Q1681.08 1859.72 1677.93 1862.94 Q1674.78 1866.15 1669.55 1866.15 Q1663.55 1866.15 1660.38 1861.57 Q1657.21 1856.96 1657.21 1848.24 Q1657.21 1840.04 1661.1 1835.18 Q1664.99 1830.3 1671.54 1830.3 Q1673.3 1830.3 1675.08 1830.65 Q1676.89 1830.99 1678.83 1831.69 Z" fill="#000000" fill-rule="nonzero" fill-opacity="1" /><path clip-path="url(#clip470)" d="M2120.12 1834 Q2116.51 1834 2114.68 1837.57 Q2112.88 1841.11 2112.88 1848.24 Q2112.88 1855.34 2114.68 1858.91 Q2116.51 1862.45 2120.12 1862.45 Q2123.75 1862.45 2125.56 1858.91 Q2127.39 1855.34 2127.39 1848.24 Q2127.39 1841.11 2125.56 1837.57 Q2123.75 1834 2120.12 1834 M2120.12 1830.3 Q2125.93 1830.3 2128.99 1834.9 Q2132.07 1839.49 2132.07 1848.24 Q2132.07 1856.96 2128.99 1861.57 Q2125.93 1866.15 2120.12 1866.15 Q2114.31 1866.15 2111.23 1861.57 Q2108.18 1856.96 2108.18 1848.24 Q2108.18 1839.49 2111.23 1834.9 Q2114.31 1830.3 2120.12 1830.3 Z" fill="#000000" fill-rule="nonzero" fill-opacity="1" /><path clip-path="url(#clip470)" d="M2140.28 1859.6 L2145.17 1859.6 L2145.17 1865.48 L2140.28 1865.48 L2140.28 1859.6 Z" fill="#000000" fill-rule="nonzero" fill-opacity="1" /><path clip-path="url(#clip470)" d="M2165.35 1849.07 Q2162.02 1849.07 2160.1 1850.85 Q2158.2 1852.64 2158.2 1855.76 Q2158.2 1858.89 2160.1 1860.67 Q2162.02 1862.45 2165.35 1862.45 Q2168.69 1862.45 2170.61 1860.67 Q2172.53 1858.86 2172.53 1855.76 Q2172.53 1852.64 2170.61 1850.85 Q2168.71 1849.07 2165.35 1849.07 M2160.68 1847.08 Q2157.67 1846.34 2155.98 1844.28 Q2154.31 1842.22 2154.31 1839.26 Q2154.31 1835.11 2157.25 1832.71 Q2160.21 1830.3 2165.35 1830.3 Q2170.51 1830.3 2173.45 1832.71 Q2176.39 1835.11 2176.39 1839.26 Q2176.39 1842.22 2174.7 1844.28 Q2173.04 1846.34 2170.05 1847.08 Q2173.43 1847.87 2175.31 1850.16 Q2177.2 1852.45 2177.2 1855.76 Q2177.2 1860.78 2174.13 1863.47 Q2171.07 1866.15 2165.35 1866.15 Q2159.63 1866.15 2156.56 1863.47 Q2153.5 1860.78 2153.5 1855.76 Q2153.5 1852.45 2155.4 1850.16 Q2157.3 1847.87 2160.68 1847.08 M2158.96 1839.7 Q2158.96 1842.38 2160.63 1843.89 Q2162.32 1845.39 2165.35 1845.39 Q2168.36 1845.39 2170.05 1843.89 Q2171.76 1842.38 2171.76 1839.7 Q2171.76 1837.01 2170.05 1835.51 Q2168.36 1834 2165.35 1834 Q2162.32 1834 2160.63 1835.51 Q2158.96 1837.01 2158.96 1839.7 Z" fill="#000000" fill-rule="nonzero" fill-opacity="1" /><path clip-path="url(#clip470)" d="M2606.1 1861.55 L2613.74 1861.55 L2613.74 1835.18 L2605.43 1836.85 L2605.43 1832.59 L2613.69 1830.92 L2618.37 1830.92 L2618.37 1861.55 L2626.01 1861.55 L2626.01 1865.48 L2606.1 1865.48 L2606.1 1861.55 Z" fill="#000000" fill-rule="nonzero" fill-opacity="1" /><path clip-path="url(#clip470)" d="M2635.45 1859.6 L2640.33 1859.6 L2640.33 1865.48 L2635.45 1865.48 L2635.45 1859.6 Z" fill="#000000" fill-rule="nonzero" fill-opacity="1" /><path clip-path="url(#clip470)" d="M2660.52 1834 Q2656.91 1834 2655.08 1837.57 Q2653.27 1841.11 2653.27 1848.24 Q2653.27 1855.34 2655.08 1858.91 Q2656.91 1862.45 2660.52 1862.45 Q2664.15 1862.45 2665.96 1858.91 Q2667.79 1855.34 2667.79 1848.24 Q2667.79 1841.11 2665.96 1837.57 Q2664.15 1834 2660.52 1834 M2660.52 1830.3 Q2666.33 1830.3 2669.39 1834.9 Q2672.46 1839.49 2672.46 1848.24 Q2672.46 1856.96 2669.39 1861.57 Q2666.33 1866.15 2660.52 1866.15 Q2654.71 1866.15 2651.63 1861.57 Q2648.58 1856.96 2648.58 1848.24 Q2648.58 1839.49 2651.63 1834.9 Q2654.71 1830.3 2660.52 1830.3 Z" fill="#000000" fill-rule="nonzero" fill-opacity="1" /><polyline clip-path="url(#clip472)" style="stroke:#000000; stroke-linecap:round; stroke-linejoin:round; stroke-width:2; stroke-opacity:0.1; fill:none" points="159.478,1800.78 2640.76,1800.78 "/>
<polyline clip-path="url(#clip472)" style="stroke:#000000; stroke-linecap:round; stroke-linejoin:round; stroke-width:2; stroke-opacity:0.1; fill:none" points="159.478,1450.07 2640.76,1450.07 "/>
<polyline clip-path="url(#clip472)" style="stroke:#000000; stroke-linecap:round; stroke-linejoin:round; stroke-width:2; stroke-opacity:0.1; fill:none" points="159.478,1099.37 2640.76,1099.37 "/>
<polyline clip-path="url(#clip472)" style="stroke:#000000; stroke-linecap:round; stroke-linejoin:round; stroke-width:2; stroke-opacity:0.1; fill:none" points="159.478,748.658 2640.76,748.658 "/>
<polyline clip-path="url(#clip472)" style="stroke:#000000; stroke-linecap:round; stroke-linejoin:round; stroke-width:2; stroke-opacity:0.1; fill:none" points="159.478,397.951 2640.76,397.951 "/>
<polyline clip-path="url(#clip472)" style="stroke:#000000; stroke-linecap:round; stroke-linejoin:round; stroke-width:2; stroke-opacity:0.1; fill:none" points="159.478,47.2441 2640.76,47.2441 "/>
<polyline clip-path="url(#clip470)" style="stroke:#000000; stroke-linecap:round; stroke-linejoin:round; stroke-width:4; stroke-opacity:1; fill:none" points="159.478,1800.78 159.478,47.2441 "/>
<polyline clip-path="url(#clip470)" style="stroke:#000000; stroke-linecap:round; stroke-linejoin:round; stroke-width:4; stroke-opacity:1; fill:none" points="159.478,1800.78 178.376,1800.78 "/>
<polyline clip-path="url(#clip470)" style="stroke:#000000; stroke-linecap:round; stroke-linejoin:round; stroke-width:4; stroke-opacity:1; fill:none" points="159.478,1450.07 178.376,1450.07 "/>
<polyline clip-path="url(#clip470)" style="stroke:#000000; stroke-linecap:round; stroke-linejoin:round; stroke-width:4; stroke-opacity:1; fill:none" points="159.478,1099.37 178.376,1099.37 "/>
<polyline clip-path="url(#clip470)" style="stroke:#000000; stroke-linecap:round; stroke-linejoin:round; stroke-width:4; stroke-opacity:1; fill:none" points="159.478,748.658 178.376,748.658 "/>
<polyline clip-path="url(#clip470)" style="stroke:#000000; stroke-linecap:round; stroke-linejoin:round; stroke-width:4; stroke-opacity:1; fill:none" points="159.478,397.951 178.376,397.951 "/>
<polyline clip-path="url(#clip470)" style="stroke:#000000; stroke-linecap:round; stroke-linejoin:round; stroke-width:4; stroke-opacity:1; fill:none" points="159.478,47.2441 178.376,47.2441 "/>
<path clip-path="url(#clip470)" d="M61.9826 1786.58 Q58.3715 1786.58 56.5428 1790.14 Q54.7373 1793.68 54.7373 1800.81 Q54.7373 1807.92 56.5428 1811.49 Q58.3715 1815.03 61.9826 1815.03 Q65.6169 1815.03 67.4224 1811.49 Q69.2511 1807.92 69.2511 1800.81 Q69.2511 1793.68 67.4224 1790.14 Q65.6169 1786.58 61.9826 1786.58 M61.9826 1782.87 Q67.7928 1782.87 70.8483 1787.48 Q73.927 1792.06 73.927 1800.81 Q73.927 1809.54 70.8483 1814.15 Q67.7928 1818.73 61.9826 1818.73 Q56.1725 1818.73 53.0938 1814.15 Q50.0382 1809.54 50.0382 1800.81 Q50.0382 1792.06 53.0938 1787.48 Q56.1725 1782.87 61.9826 1782.87 Z" fill="#000000" fill-rule="nonzero" fill-opacity="1" /><path clip-path="url(#clip470)" d="M82.1445 1812.18 L87.0288 1812.18 L87.0288 1818.06 L82.1445 1818.06 L82.1445 1812.18 Z" fill="#000000" fill-rule="nonzero" fill-opacity="1" /><path clip-path="url(#clip470)" d="M107.214 1786.58 Q103.603 1786.58 101.774 1790.14 Q99.9685 1793.68 99.9685 1800.81 Q99.9685 1807.92 101.774 1811.49 Q103.603 1815.03 107.214 1815.03 Q110.848 1815.03 112.654 1811.49 Q114.482 1807.92 114.482 1800.81 Q114.482 1793.68 112.654 1790.14 Q110.848 1786.58 107.214 1786.58 M107.214 1782.87 Q113.024 1782.87 116.08 1787.48 Q119.158 1792.06 119.158 1800.81 Q119.158 1809.54 116.08 1814.15 Q113.024 1818.73 107.214 1818.73 Q101.404 1818.73 98.325 1814.15 Q95.2695 1809.54 95.2695 1800.81 Q95.2695 1792.06 98.325 1787.48 Q101.404 1782.87 107.214 1782.87 Z" fill="#000000" fill-rule="nonzero" fill-opacity="1" /><path clip-path="url(#clip470)" d="M63.5798 1435.87 Q59.9687 1435.87 58.14 1439.44 Q56.3345 1442.98 56.3345 1450.11 Q56.3345 1457.21 58.14 1460.78 Q59.9687 1464.32 63.5798 1464.32 Q67.2141 1464.32 69.0196 1460.78 Q70.8483 1457.21 70.8483 1450.11 Q70.8483 1442.98 69.0196 1439.44 Q67.2141 1435.87 63.5798 1435.87 M63.5798 1432.17 Q69.39 1432.17 72.4455 1436.77 Q75.5242 1441.36 75.5242 1450.11 Q75.5242 1458.83 72.4455 1463.44 Q69.39 1468.02 63.5798 1468.02 Q57.7697 1468.02 54.691 1463.44 Q51.6354 1458.83 51.6354 1450.11 Q51.6354 1441.36 54.691 1436.77 Q57.7697 1432.17 63.5798 1432.17 Z" fill="#000000" fill-rule="nonzero" fill-opacity="1" /><path clip-path="url(#clip470)" d="M83.7418 1461.47 L88.626 1461.47 L88.626 1467.35 L83.7418 1467.35 L83.7418 1461.47 Z" fill="#000000" fill-rule="nonzero" fill-opacity="1" /><path clip-path="url(#clip470)" d="M102.839 1463.42 L119.158 1463.42 L119.158 1467.35 L97.2139 1467.35 L97.2139 1463.42 Q99.8759 1460.66 104.459 1456.03 Q109.066 1451.38 110.246 1450.04 Q112.492 1447.51 113.371 1445.78 Q114.274 1444.02 114.274 1442.33 Q114.274 1439.57 112.33 1437.84 Q110.408 1436.1 107.306 1436.1 Q105.107 1436.1 102.654 1436.87 Q100.223 1437.63 97.4454 1439.18 L97.4454 1434.46 Q100.269 1433.32 102.723 1432.75 Q105.177 1432.17 107.214 1432.17 Q112.584 1432.17 115.779 1434.85 Q118.973 1437.54 118.973 1442.03 Q118.973 1444.16 118.163 1446.08 Q117.376 1447.98 115.269 1450.57 Q114.691 1451.24 111.589 1454.46 Q108.487 1457.65 102.839 1463.42 Z" fill="#000000" fill-rule="nonzero" fill-opacity="1" /><path clip-path="url(#clip470)" d="M61.4965 1085.16 Q57.8854 1085.16 56.0567 1088.73 Q54.2512 1092.27 54.2512 1099.4 Q54.2512 1106.51 56.0567 1110.07 Q57.8854 1113.61 61.4965 1113.61 Q65.1307 1113.61 66.9363 1110.07 Q68.765 1106.51 68.765 1099.4 Q68.765 1092.27 66.9363 1088.73 Q65.1307 1085.16 61.4965 1085.16 M61.4965 1081.46 Q67.3067 1081.46 70.3622 1086.07 Q73.4409 1090.65 73.4409 1099.4 Q73.4409 1108.13 70.3622 1112.73 Q67.3067 1117.32 61.4965 1117.32 Q55.6864 1117.32 52.6077 1112.73 Q49.5521 1108.13 49.5521 1099.4 Q49.5521 1090.65 52.6077 1086.07 Q55.6864 1081.46 61.4965 1081.46 Z" fill="#000000" fill-rule="nonzero" fill-opacity="1" /><path clip-path="url(#clip470)" d="M81.6584 1110.77 L86.5427 1110.77 L86.5427 1116.65 L81.6584 1116.65 L81.6584 1110.77 Z" fill="#000000" fill-rule="nonzero" fill-opacity="1" /><path clip-path="url(#clip470)" d="M109.575 1086.16 L97.7695 1104.61 L109.575 1104.61 L109.575 1086.16 M108.348 1082.09 L114.228 1082.09 L114.228 1104.61 L119.158 1104.61 L119.158 1108.5 L114.228 1108.5 L114.228 1116.65 L109.575 1116.65 L109.575 1108.5 L93.9732 1108.5 L93.9732 1103.98 L108.348 1082.09 Z" fill="#000000" fill-rule="nonzero" fill-opacity="1" /><path clip-path="url(#clip470)" d="M61.8206 734.457 Q58.2095 734.457 56.3808 738.022 Q54.5752 741.563 54.5752 748.693 Q54.5752 755.799 56.3808 759.364 Q58.2095 762.906 61.8206 762.906 Q65.4548 762.906 67.2604 759.364 Q69.0891 755.799 69.0891 748.693 Q69.0891 741.563 67.2604 738.022 Q65.4548 734.457 61.8206 734.457 M61.8206 730.753 Q67.6307 730.753 70.6863 735.36 Q73.765 739.943 73.765 748.693 Q73.765 757.42 70.6863 762.026 Q67.6307 766.609 61.8206 766.609 Q56.0104 766.609 52.9317 762.026 Q49.8762 757.42 49.8762 748.693 Q49.8762 739.943 52.9317 735.36 Q56.0104 730.753 61.8206 730.753 Z" fill="#000000" fill-rule="nonzero" fill-opacity="1" /><path clip-path="url(#clip470)" d="M81.9825 760.059 L86.8667 760.059 L86.8667 765.938 L81.9825 765.938 L81.9825 760.059 Z" fill="#000000" fill-rule="nonzero" fill-opacity="1" /><path clip-path="url(#clip470)" d="M107.631 746.795 Q104.482 746.795 102.631 748.948 Q100.802 751.1 100.802 754.85 Q100.802 758.577 102.631 760.753 Q104.482 762.906 107.631 762.906 Q110.779 762.906 112.607 760.753 Q114.459 758.577 114.459 754.85 Q114.459 751.1 112.607 748.948 Q110.779 746.795 107.631 746.795 M116.913 732.142 L116.913 736.401 Q115.154 735.568 113.348 735.128 Q111.566 734.688 109.806 734.688 Q105.177 734.688 102.723 737.813 Q100.293 740.938 99.9454 747.258 Q101.311 745.244 103.371 744.179 Q105.431 743.091 107.908 743.091 Q113.117 743.091 116.126 746.262 Q119.158 749.41 119.158 754.85 Q119.158 760.174 116.01 763.392 Q112.862 766.609 107.631 766.609 Q101.635 766.609 98.4639 762.026 Q95.2926 757.42 95.2926 748.693 Q95.2926 740.498 99.1815 735.637 Q103.07 730.753 109.621 730.753 Q111.38 730.753 113.163 731.1 Q114.968 731.448 116.913 732.142 Z" fill="#000000" fill-rule="nonzero" fill-opacity="1" /><path clip-path="url(#clip470)" d="M62.0752 383.75 Q58.4641 383.75 56.6354 387.315 Q54.8299 390.856 54.8299 397.986 Q54.8299 405.092 56.6354 408.657 Q58.4641 412.199 62.0752 412.199 Q65.7094 412.199 67.515 408.657 Q69.3437 405.092 69.3437 397.986 Q69.3437 390.856 67.515 387.315 Q65.7094 383.75 62.0752 383.75 M62.0752 380.046 Q67.8854 380.046 70.9409 384.653 Q74.0196 389.236 74.0196 397.986 Q74.0196 406.713 70.9409 411.319 Q67.8854 415.902 62.0752 415.902 Q56.2651 415.902 53.1864 411.319 Q50.1308 406.713 50.1308 397.986 Q50.1308 389.236 53.1864 384.653 Q56.2651 380.046 62.0752 380.046 Z" fill="#000000" fill-rule="nonzero" fill-opacity="1" /><path clip-path="url(#clip470)" d="M82.2371 409.352 L87.1214 409.352 L87.1214 415.231 L82.2371 415.231 L82.2371 409.352 Z" fill="#000000" fill-rule="nonzero" fill-opacity="1" /><path clip-path="url(#clip470)" d="M107.306 398.819 Q103.973 398.819 102.052 400.602 Q100.154 402.384 100.154 405.509 Q100.154 408.634 102.052 410.416 Q103.973 412.199 107.306 412.199 Q110.64 412.199 112.561 410.416 Q114.482 408.611 114.482 405.509 Q114.482 402.384 112.561 400.602 Q110.663 398.819 107.306 398.819 M102.631 396.828 Q99.6213 396.088 97.9315 394.028 Q96.2648 391.967 96.2648 389.004 Q96.2648 384.861 99.2046 382.454 Q102.168 380.046 107.306 380.046 Q112.468 380.046 115.408 382.454 Q118.348 384.861 118.348 389.004 Q118.348 391.967 116.658 394.028 Q114.992 396.088 112.005 396.828 Q115.385 397.615 117.26 399.907 Q119.158 402.199 119.158 405.509 Q119.158 410.532 116.08 413.217 Q113.024 415.902 107.306 415.902 Q101.589 415.902 98.5102 413.217 Q95.4547 410.532 95.4547 405.509 Q95.4547 402.199 97.3528 399.907 Q99.2509 397.615 102.631 396.828 M100.918 389.444 Q100.918 392.129 102.584 393.634 Q104.274 395.139 107.306 395.139 Q110.316 395.139 112.005 393.634 Q113.718 392.129 113.718 389.444 Q113.718 386.759 112.005 385.254 Q110.316 383.75 107.306 383.75 Q104.274 383.75 102.584 385.254 Q100.918 386.759 100.918 389.444 Z" fill="#000000" fill-rule="nonzero" fill-opacity="1" /><path clip-path="url(#clip470)" d="M52.7928 60.5889 L60.4317 60.5889 L60.4317 34.2233 L52.1216 35.89 L52.1216 31.6308 L60.3854 29.9641 L65.0613 29.9641 L65.0613 60.5889 L72.7002 60.5889 L72.7002 64.5241 L52.7928 64.5241 L52.7928 60.5889 Z" fill="#000000" fill-rule="nonzero" fill-opacity="1" /><path clip-path="url(#clip470)" d="M82.1445 58.6445 L87.0288 58.6445 L87.0288 64.5241 L82.1445 64.5241 L82.1445 58.6445 Z" fill="#000000" fill-rule="nonzero" fill-opacity="1" /><path clip-path="url(#clip470)" d="M107.214 33.0428 Q103.603 33.0428 101.774 36.6076 Q99.9685 40.1492 99.9685 47.2788 Q99.9685 54.3853 101.774 57.9501 Q103.603 61.4917 107.214 61.4917 Q110.848 61.4917 112.654 57.9501 Q114.482 54.3853 114.482 47.2788 Q114.482 40.1492 112.654 36.6076 Q110.848 33.0428 107.214 33.0428 M107.214 29.3391 Q113.024 29.3391 116.08 33.9456 Q119.158 38.5289 119.158 47.2788 Q119.158 56.0056 116.08 60.6121 Q113.024 65.1954 107.214 65.1954 Q101.404 65.1954 98.325 60.6121 Q95.2695 56.0056 95.2695 47.2788 Q95.2695 38.5289 98.325 33.9456 Q101.404 29.3391 107.214 29.3391 Z" fill="#000000" fill-rule="nonzero" fill-opacity="1" /><polyline clip-path="url(#clip472)" style="stroke:#009af9; stroke-linecap:round; stroke-linejoin:round; stroke-width:4; stroke-opacity:1; fill:none" points="159.478,3554.31 159.478,-1706.29 "/>
<path clip-path="url(#clip470)" d="M2257.49 209.375 L2558.05 209.375 L2558.05 105.695 L2257.49 105.695  Z" fill="#ffffff" fill-rule="evenodd" fill-opacity="1"/>
<polyline clip-path="url(#clip470)" style="stroke:#000000; stroke-linecap:round; stroke-linejoin:round; stroke-width:4; stroke-opacity:1; fill:none" points="2257.49,209.375 2558.05,209.375 2558.05,105.695 2257.49,105.695 2257.49,209.375 "/>
<polyline clip-path="url(#clip470)" style="stroke:#009af9; stroke-linecap:round; stroke-linejoin:round; stroke-width:4; stroke-opacity:1; fill:none" points="2285.06,157.535 2450.48,157.535 "/>
<path clip-path="url(#clip470)" d="M2491.89 177.223 Q2490.08 181.852 2488.37 183.264 Q2486.66 184.676 2483.79 184.676 L2480.38 184.676 L2480.38 181.112 L2482.88 181.112 Q2484.64 181.112 2485.62 180.278 Q2486.59 179.445 2487.77 176.343 L2488.53 174.399 L2478.05 148.889 L2482.56 148.889 L2490.66 169.167 L2498.76 148.889 L2503.28 148.889 L2491.89 177.223 Z" fill="#000000" fill-rule="nonzero" fill-opacity="1" /><path clip-path="url(#clip470)" d="M2510.57 170.88 L2518.21 170.88 L2518.21 144.515 L2509.9 146.181 L2509.9 141.922 L2518.16 140.255 L2522.84 140.255 L2522.84 170.88 L2530.48 170.88 L2530.48 174.815 L2510.57 174.815 L2510.57 170.88 Z" fill="#000000" fill-rule="nonzero" fill-opacity="1" /></svg>
