<?xml version="1.0" encoding="utf-8"?>
<svg xmlns="http://www.w3.org/2000/svg" xmlns:xlink="http://www.w3.org/1999/xlink" width="672" height="480" viewBox="0 0 2688 1920">
<defs>
  <clipPath id="clip430">
    <rect x="0" y="0" width="2688" height="1920"/>
  </clipPath>
</defs>
<path clip-path="url(#clip430)" d="M0 1920 L2688 1920 L2688 0 L0 0  Z" fill="#ffffff" fill-rule="evenodd" fill-opacity="1"/>
<defs>
  <clipPath id="clip431">
    <rect x="537" y="0" width="1883" height="1883"/>
  </clipPath>
</defs>
<path clip-path="url(#clip430)" d="M161.249 1800.78 L2640.76 1800.78 L2640.76 47.2441 L161.249 47.2441  Z" fill="#ffffff" fill-rule="evenodd" fill-opacity="1"/>
<defs>
  <clipPath id="clip432">
    <rect x="161" y="47" width="2481" height="1755"/>
  </clipPath>
</defs>
<polyline clip-path="url(#clip432)" style="stroke:#000000; stroke-linecap:round; stroke-linejoin:round; stroke-width:2; stroke-opacity:0.1; fill:none" points="231.424,1800.78 231.424,47.2441 "/>
<polyline clip-path="url(#clip432)" style="stroke:#000000; stroke-linecap:round; stroke-linejoin:round; stroke-width:2; stroke-opacity:0.1; fill:none" points="699.255,1800.78 699.255,47.2441 "/>
<polyline clip-path="url(#clip432)" style="stroke:#000000; stroke-linecap:round; stroke-linejoin:round; stroke-width:2; stroke-opacity:0.1; fill:none" points="1167.09,1800.78 1167.09,47.2441 "/>
<polyline clip-path="url(#clip432)" style="stroke:#000000; stroke-linecap:round; stroke-linejoin:round; stroke-width:2; stroke-opacity:0.1; fill:none" points="1634.92,1800.78 1634.92,47.2441 "/>
<polyline clip-path="url(#clip432)" style="stroke:#000000; stroke-linecap:round; stroke-linejoin:round; stroke-width:2; stroke-opacity:0.1; fill:none" points="2102.75,1800.78 2102.75,47.2441 "/>
<polyline clip-path="url(#clip432)" style="stroke:#000000; stroke-linecap:round; stroke-linejoin:round; stroke-width:2; stroke-opacity:0.1; fill:none" points="2570.58,1800.78 2570.58,47.2441 "/>
<polyline clip-path="url(#clip430)" style="stroke:#000000; stroke-linecap:round; stroke-linejoin:round; stroke-width:4; stroke-opacity:1; fill:none" points="161.249,1800.78 2640.76,1800.78 "/>
<polyline clip-path="url(#clip430)" style="stroke:#000000; stroke-linecap:round; stroke-linejoin:round; stroke-width:4; stroke-opacity:1; fill:none" points="231.424,1800.78 231.424,1781.88 "/>
<polyline clip-path="url(#clip430)" style="stroke:#000000; stroke-linecap:round; stroke-linejoin:round; stroke-width:4; stroke-opacity:1; fill:none" points="699.255,1800.78 699.255,1781.88 "/>
<polyline clip-path="url(#clip430)" style="stroke:#000000; stroke-linecap:round; stroke-linejoin:round; stroke-width:4; stroke-opacity:1; fill:none" points="1167.09,1800.78 1167.09,1781.88 "/>
<polyline clip-path="url(#clip430)" style="stroke:#000000; stroke-linecap:round; stroke-linejoin:round; stroke-width:4; stroke-opacity:1; fill:none" points="1634.92,1800.78 1634.92,1781.88 "/>
<polyline clip-path="url(#clip430)" style="stroke:#000000; stroke-linecap:round; stroke-linejoin:round; stroke-width:4; stroke-opacity:1; fill:none" points="2102.75,1800.78 2102.75,1781.88 "/>
<polyline clip-path="url(#clip430)" style="stroke:#000000; stroke-linecap:round; stroke-linejoin:round; stroke-width:4; stroke-opacity:1; fill:none" points="2570.58,1800.78 2570.58,1781.88 "/>
<path clip-path="url(#clip430)" d="M221.806 1861.55 L229.445 1861.55 L229.445 1835.18 L221.134 1836.85 L221.134 1832.59 L229.398 1830.92 L234.074 1830.92 L234.074 1861.55 L241.713 1861.55 L241.713 1865.48 L221.806 1865.48 L221.806 1861.55 Z" fill="#000000" fill-rule="nonzero" fill-opacity="1" /><path clip-path="url(#clip430)" d="M693.908 1861.55 L710.227 1861.55 L710.227 1865.48 L688.283 1865.48 L688.283 1861.55 Q690.945 1858.79 695.528 1854.16 Q700.135 1849.51 701.315 1848.17 Q703.561 1845.65 704.44 1843.91 Q705.343 1842.15 705.343 1840.46 Q705.343 1837.71 703.399 1835.97 Q701.477 1834.23 698.376 1834.23 Q696.177 1834.23 693.723 1835 Q691.292 1835.76 688.515 1837.31 L688.515 1832.59 Q691.339 1831.46 693.792 1830.88 Q696.246 1830.3 698.283 1830.3 Q703.653 1830.3 706.848 1832.98 Q710.042 1835.67 710.042 1840.16 Q710.042 1842.29 709.232 1844.21 Q708.445 1846.11 706.339 1848.7 Q705.76 1849.37 702.658 1852.59 Q699.556 1855.78 693.908 1861.55 Z" fill="#000000" fill-rule="nonzero" fill-opacity="1" /><path clip-path="url(#clip430)" d="M1171.33 1846.85 Q1174.69 1847.57 1176.57 1849.84 Q1178.46 1852.1 1178.46 1855.44 Q1178.46 1860.55 1174.95 1863.35 Q1171.43 1866.15 1164.95 1866.15 Q1162.77 1866.15 1160.45 1865.71 Q1158.16 1865.3 1155.71 1864.44 L1155.71 1859.93 Q1157.65 1861.06 1159.97 1861.64 Q1162.28 1862.22 1164.81 1862.22 Q1169.2 1862.22 1171.5 1860.48 Q1173.81 1858.75 1173.81 1855.44 Q1173.81 1852.38 1171.66 1850.67 Q1169.53 1848.93 1165.71 1848.93 L1161.68 1848.93 L1161.68 1845.09 L1165.89 1845.09 Q1169.34 1845.09 1171.17 1843.72 Q1173 1842.34 1173 1839.74 Q1173 1837.08 1171.1 1835.67 Q1169.23 1834.23 1165.71 1834.23 Q1163.79 1834.23 1161.59 1834.65 Q1159.39 1835.07 1156.75 1835.95 L1156.75 1831.78 Q1159.41 1831.04 1161.73 1830.67 Q1164.07 1830.3 1166.13 1830.3 Q1171.45 1830.3 1174.55 1832.73 Q1177.65 1835.14 1177.65 1839.26 Q1177.65 1842.13 1176.01 1844.12 Q1174.37 1846.09 1171.33 1846.85 Z" fill="#000000" fill-rule="nonzero" fill-opacity="1" /><path clip-path="url(#clip430)" d="M1637.93 1835 L1626.12 1853.45 L1637.93 1853.45 L1637.93 1835 M1636.7 1830.92 L1642.58 1830.92 L1642.58 1853.45 L1647.51 1853.45 L1647.51 1857.34 L1642.58 1857.34 L1642.58 1865.48 L1637.93 1865.48 L1637.93 1857.34 L1622.33 1857.34 L1622.33 1852.82 L1636.7 1830.92 Z" fill="#000000" fill-rule="nonzero" fill-opacity="1" /><path clip-path="url(#clip430)" d="M2093.03 1830.92 L2111.38 1830.92 L2111.38 1834.86 L2097.31 1834.86 L2097.31 1843.33 Q2098.33 1842.98 2099.35 1842.82 Q2100.37 1842.64 2101.38 1842.64 Q2107.17 1842.64 2110.55 1845.81 Q2113.93 1848.98 2113.93 1854.4 Q2113.93 1859.97 2110.46 1863.08 Q2106.99 1866.15 2100.67 1866.15 Q2098.49 1866.15 2096.22 1865.78 Q2093.98 1865.41 2091.57 1864.67 L2091.57 1859.97 Q2093.65 1861.11 2095.87 1861.66 Q2098.1 1862.22 2100.57 1862.22 Q2104.58 1862.22 2106.92 1860.11 Q2109.25 1858.01 2109.25 1854.4 Q2109.25 1850.78 2106.92 1848.68 Q2104.58 1846.57 2100.57 1846.57 Q2098.7 1846.57 2096.82 1846.99 Q2094.97 1847.4 2093.03 1848.28 L2093.03 1830.92 Z" fill="#000000" fill-rule="nonzero" fill-opacity="1" /><path clip-path="url(#clip430)" d="M2570.99 1846.34 Q2567.84 1846.34 2565.99 1848.49 Q2564.16 1850.65 2564.16 1854.4 Q2564.16 1858.12 2565.99 1860.3 Q2567.84 1862.45 2570.99 1862.45 Q2574.13 1862.45 2575.96 1860.3 Q2577.81 1858.12 2577.81 1854.4 Q2577.81 1850.65 2575.96 1848.49 Q2574.13 1846.34 2570.99 1846.34 M2580.27 1831.69 L2580.27 1835.95 Q2578.51 1835.11 2576.7 1834.67 Q2574.92 1834.23 2573.16 1834.23 Q2568.53 1834.23 2566.08 1837.36 Q2563.65 1840.48 2563.3 1846.8 Q2564.67 1844.79 2566.73 1843.72 Q2568.79 1842.64 2571.26 1842.64 Q2576.47 1842.64 2579.48 1845.81 Q2582.51 1848.96 2582.51 1854.4 Q2582.51 1859.72 2579.37 1862.94 Q2576.22 1866.15 2570.99 1866.15 Q2564.99 1866.15 2561.82 1861.57 Q2558.65 1856.96 2558.65 1848.24 Q2558.65 1840.04 2562.54 1835.18 Q2566.43 1830.3 2572.98 1830.3 Q2574.74 1830.3 2576.52 1830.65 Q2578.32 1830.99 2580.27 1831.69 Z" fill="#000000" fill-rule="nonzero" fill-opacity="1" /><polyline clip-path="url(#clip432)" style="stroke:#000000; stroke-linecap:round; stroke-linejoin:round; stroke-width:2; stroke-opacity:0.1; fill:none" points="161.249,1800.78 2640.76,1800.78 "/>
<polyline clip-path="url(#clip432)" style="stroke:#000000; stroke-linecap:round; stroke-linejoin:round; stroke-width:2; stroke-opacity:0.1; fill:none" points="161.249,763.152 2640.76,763.152 "/>
<polyline clip-path="url(#clip430)" style="stroke:#000000; stroke-linecap:round; stroke-linejoin:round; stroke-width:4; stroke-opacity:1; fill:none" points="161.249,1800.78 161.249,47.2441 "/>
<polyline clip-path="url(#clip430)" style="stroke:#000000; stroke-linecap:round; stroke-linejoin:round; stroke-width:4; stroke-opacity:1; fill:none" points="161.249,1800.78 180.147,1800.78 "/>
<polyline clip-path="url(#clip430)" style="stroke:#000000; stroke-linecap:round; stroke-linejoin:round; stroke-width:4; stroke-opacity:1; fill:none" points="161.249,763.152 180.147,763.152 "/>
<path clip-path="url(#clip430)" d="M50.2234 1820.57 L57.8623 1820.57 L57.8623 1794.21 L49.5521 1795.87 L49.5521 1791.61 L57.816 1789.95 L62.4919 1789.95 L62.4919 1820.57 L70.1307 1820.57 L70.1307 1824.51 L50.2234 1824.51 L50.2234 1820.57 Z" fill="#000000" fill-rule="nonzero" fill-opacity="1" /><path clip-path="url(#clip430)" d="M89.5751 1793.03 Q85.964 1793.03 84.1353 1796.59 Q82.3297 1800.13 82.3297 1807.26 Q82.3297 1814.37 84.1353 1817.93 Q85.964 1821.47 89.5751 1821.47 Q93.2093 1821.47 95.0148 1817.93 Q96.8435 1814.37 96.8435 1807.26 Q96.8435 1800.13 95.0148 1796.59 Q93.2093 1793.03 89.5751 1793.03 M89.5751 1789.32 Q95.3852 1789.32 98.4408 1793.93 Q101.519 1798.51 101.519 1807.26 Q101.519 1815.99 98.4408 1820.59 Q95.3852 1825.18 89.5751 1825.18 Q83.7649 1825.18 80.6862 1820.59 Q77.6307 1815.99 77.6307 1807.26 Q77.6307 1798.51 80.6862 1793.93 Q83.7649 1789.32 89.5751 1789.32 Z" fill="#000000" fill-rule="nonzero" fill-opacity="1" /><path clip-path="url(#clip430)" d="M111.224 1771.52 Q108.29 1771.52 106.804 1774.41 Q105.337 1777.29 105.337 1783.08 Q105.337 1788.86 106.804 1791.76 Q108.29 1794.63 111.224 1794.63 Q114.177 1794.63 115.644 1791.76 Q117.13 1788.86 117.13 1783.08 Q117.13 1777.29 115.644 1774.41 Q114.177 1771.52 111.224 1771.52 M111.224 1768.51 Q115.945 1768.51 118.428 1772.25 Q120.929 1775.98 120.929 1783.08 Q120.929 1790.18 118.428 1793.92 Q115.945 1797.64 111.224 1797.64 Q106.503 1797.64 104.002 1793.92 Q101.519 1790.18 101.519 1783.08 Q101.519 1775.98 104.002 1772.25 Q106.503 1768.51 111.224 1768.51 Z" fill="#000000" fill-rule="nonzero" fill-opacity="1" /><path clip-path="url(#clip430)" d="M52.9129 782.945 L60.5518 782.945 L60.5518 756.579 L52.2416 758.246 L52.2416 753.987 L60.5055 752.32 L65.1814 752.32 L65.1814 782.945 L72.8202 782.945 L72.8202 786.88 L52.9129 786.88 L52.9129 782.945 Z" fill="#000000" fill-rule="nonzero" fill-opacity="1" /><path clip-path="url(#clip430)" d="M92.2646 755.399 Q88.6535 755.399 86.8248 758.964 Q85.0192 762.505 85.0192 769.635 Q85.0192 776.741 86.8248 780.306 Q88.6535 783.848 92.2646 783.848 Q95.8988 783.848 97.7044 780.306 Q99.5331 776.741 99.5331 769.635 Q99.5331 762.505 97.7044 758.964 Q95.8988 755.399 92.2646 755.399 M92.2646 751.695 Q98.0747 751.695 101.13 756.302 Q104.209 760.885 104.209 769.635 Q104.209 778.362 101.13 782.968 Q98.0747 787.551 92.2646 787.551 Q86.4544 787.551 83.3757 782.968 Q80.3202 778.362 80.3202 769.635 Q80.3202 760.885 83.3757 756.302 Q86.4544 751.695 92.2646 751.695 Z" fill="#000000" fill-rule="nonzero" fill-opacity="1" /><path clip-path="url(#clip430)" d="M104.754 756.272 L110.961 756.272 L110.961 734.85 L104.209 736.204 L104.209 732.744 L110.923 731.39 L114.722 731.39 L114.722 756.272 L120.929 756.272 L120.929 759.47 L104.754 759.47 L104.754 756.272 Z" fill="#000000" fill-rule="nonzero" fill-opacity="1" /><polyline clip-path="url(#clip432)" style="stroke:#009af9; stroke-linecap:round; stroke-linejoin:round; stroke-width:4; stroke-opacity:1; fill:none" points="231.424,47.2441 699.255,1791.17 1167.09,1790.98 1634.92,1790.88 2102.75,1790.83 2570.58,1790.8 "/>
<circle clip-path="url(#clip432)" cx="231.424" cy="47.2441" r="14.4" fill="#009af9" fill-rule="evenodd" fill-opacity="1" stroke="#000000" stroke-opacity="1" stroke-width="3.84"/>
<circle clip-path="url(#clip432)" cx="699.255" cy="1791.17" r="14.4" fill="#009af9" fill-rule="evenodd" fill-opacity="1" stroke="#000000" stroke-opacity="1" stroke-width="3.84"/>
<circle clip-path="url(#clip432)" cx="1167.09" cy="1790.98" r="14.4" fill="#009af9" fill-rule="evenodd" fill-opacity="1" stroke="#000000" stroke-opacity="1" stroke-width="3.84"/>
<circle clip-path="url(#clip432)" cx="1634.92" cy="1790.88" r="14.4" fill="#009af9" fill-rule="evenodd" fill-opacity="1" stroke="#000000" stroke-opacity="1" stroke-width="3.84"/>
<circle clip-path="url(#clip432)" cx="2102.75" cy="1790.83" r="14.4" fill="#009af9" fill-rule="evenodd" fill-opacity="1" stroke="#000000" stroke-opacity="1" stroke-width="3.84"/>
<circle clip-path="url(#clip432)" cx="2570.58" cy="1790.8" r="14.4" fill="#009af9" fill-rule="evenodd" fill-opacity="1" stroke="#000000" stroke-opacity="1" stroke-width="3.84"/>
<path clip-path="url(#clip430)" d="M2257.72 209.375 L2558.11 209.375 L2558.11 105.695 L2257.72 105.695  Z" fill="#ffffff" fill-rule="evenodd" fill-opacity="1"/>
<polyline clip-path="url(#clip430)" style="stroke:#000000; stroke-linecap:round; stroke-linejoin:round; stroke-width:4; stroke-opacity:1; fill:none" points="2257.72,209.375 2558.11,209.375 2558.11,105.695 2257.72,105.695 2257.72,209.375 "/>
<polyline clip-path="url(#clip430)" style="stroke:#009af9; stroke-linecap:round; stroke-linejoin:round; stroke-width:4; stroke-opacity:1; fill:none" points="2285.27,157.535 2450.58,157.535 "/>
<circle clip-path="url(#clip430)" cx="2367.93" cy="157.535" r="22.9584" fill="#009af9" fill-rule="evenodd" fill-opacity="1" stroke="#000000" stroke-opacity="1" stroke-width="6.144"/>
<path clip-path="url(#clip430)" d="M2491.97 177.223 Q2490.16 181.852 2488.45 183.264 Q2486.74 184.676 2483.87 184.676 L2480.46 184.676 L2480.46 181.112 L2482.96 181.112 Q2484.72 181.112 2485.69 180.278 Q2486.67 179.445 2487.85 176.343 L2488.61 174.399 L2478.13 148.889 L2482.64 148.889 L2490.74 169.167 L2498.84 148.889 L2503.36 148.889 L2491.97 177.223 Z" fill="#000000" fill-rule="nonzero" fill-opacity="1" /><path clip-path="url(#clip430)" d="M2510.65 170.88 L2518.29 170.88 L2518.29 144.515 L2509.98 146.181 L2509.98 141.922 L2518.24 140.255 L2522.92 140.255 L2522.92 170.88 L2530.56 170.88 L2530.56 174.815 L2510.65 174.815 L2510.65 170.88 Z" fill="#000000" fill-rule="nonzero" fill-opacity="1" /></svg>
