<?xml version="1.0" encoding="utf-8"?>
<svg xmlns="http://www.w3.org/2000/svg" xmlns:xlink="http://www.w3.org/1999/xlink" width="672" height="480" viewBox="0 0 2688 1920">
<defs>
  <clipPath id="clip590">
    <rect x="0" y="0" width="2688" height="1920"/>
  </clipPath>
</defs>
<path clip-path="url(#clip590)" d="M0 1920 L2688 1920 L2688 0 L0 0  Z" fill="#ffffff" fill-rule="evenodd" fill-opacity="1"/>
<defs>
  <clipPath id="clip591">
    <rect x="537" y="0" width="1883" height="1883"/>
  </clipPath>
</defs>
<path clip-path="url(#clip590)" d="M197.999 1800.78 L2640.76 1800.78 L2640.76 47.2441 L197.999 47.2441  Z" fill="#ffffff" fill-rule="evenodd" fill-opacity="1"/>
<defs>
  <clipPath id="clip592">
    <rect x="197" y="47" width="2444" height="1755"/>
  </clipPath>
</defs>
<polyline clip-path="url(#clip592)" style="stroke:#000000; stroke-linecap:round; stroke-linejoin:round; stroke-width:2; stroke-opacity:0.1; fill:none" points="267.134,1800.78 267.134,47.2441 "/>
<polyline clip-path="url(#clip592)" style="stroke:#000000; stroke-linecap:round; stroke-linejoin:round; stroke-width:2; stroke-opacity:0.1; fill:none" points="728.032,1800.78 728.032,47.2441 "/>
<polyline clip-path="url(#clip592)" style="stroke:#000000; stroke-linecap:round; stroke-linejoin:round; stroke-width:2; stroke-opacity:0.1; fill:none" points="1188.93,1800.78 1188.93,47.2441 "/>
<polyline clip-path="url(#clip592)" style="stroke:#000000; stroke-linecap:round; stroke-linejoin:round; stroke-width:2; stroke-opacity:0.1; fill:none" points="1649.83,1800.78 1649.83,47.2441 "/>
<polyline clip-path="url(#clip592)" style="stroke:#000000; stroke-linecap:round; stroke-linejoin:round; stroke-width:2; stroke-opacity:0.1; fill:none" points="2110.72,1800.78 2110.72,47.2441 "/>
<polyline clip-path="url(#clip592)" style="stroke:#000000; stroke-linecap:round; stroke-linejoin:round; stroke-width:2; stroke-opacity:0.1; fill:none" points="2571.62,1800.78 2571.62,47.2441 "/>
<polyline clip-path="url(#clip590)" style="stroke:#000000; stroke-linecap:round; stroke-linejoin:round; stroke-width:4; stroke-opacity:1; fill:none" points="197.999,1800.78 2640.76,1800.78 "/>
<polyline clip-path="url(#clip590)" style="stroke:#000000; stroke-linecap:round; stroke-linejoin:round; stroke-width:4; stroke-opacity:1; fill:none" points="267.134,1800.78 267.134,1781.88 "/>
<polyline clip-path="url(#clip590)" style="stroke:#000000; stroke-linecap:round; stroke-linejoin:round; stroke-width:4; stroke-opacity:1; fill:none" points="728.032,1800.78 728.032,1781.88 "/>
<polyline clip-path="url(#clip590)" style="stroke:#000000; stroke-linecap:round; stroke-linejoin:round; stroke-width:4; stroke-opacity:1; fill:none" points="1188.93,1800.78 1188.93,1781.88 "/>
<polyline clip-path="url(#clip590)" style="stroke:#000000; stroke-linecap:round; stroke-linejoin:round; stroke-width:4; stroke-opacity:1; fill:none" points="1649.83,1800.78 1649.83,1781.88 "/>
<polyline clip-path="url(#clip590)" style="stroke:#000000; stroke-linecap:round; stroke-linejoin:round; stroke-width:4; stroke-opacity:1; fill:none" points="2110.72,1800.78 2110.72,1781.88 "/>
<polyline clip-path="url(#clip590)" style="stroke:#000000; stroke-linecap:round; stroke-linejoin:round; stroke-width:4; stroke-opacity:1; fill:none" points="2571.62,1800.78 2571.62,1781.88 "/>
<path clip-path="url(#clip590)" d="M257.516 1861.55 L265.155 1861.55 L265.155 1835.18 L256.845 1836.85 L256.845 1832.59 L265.109 1830.92 L269.785 1830.92 L269.785 1861.55 L277.423 1861.55 L277.423 1865.48 L257.516 1865.48 L257.516 1861.55 Z" fill="#000000" fill-rule="nonzero" fill-opacity="1" /><path clip-path="url(#clip590)" d="M722.684 1861.55 L739.004 1861.55 L739.004 1865.48 L717.059 1865.48 L717.059 1861.55 Q719.721 1858.79 724.305 1854.16 Q728.911 1849.51 730.092 1848.17 Q732.337 1845.65 733.217 1843.91 Q734.119 1842.15 734.119 1840.46 Q734.119 1837.71 732.175 1835.97 Q730.254 1834.23 727.152 1834.23 Q724.953 1834.23 722.499 1835 Q720.069 1835.76 717.291 1837.31 L717.291 1832.59 Q720.115 1831.46 722.569 1830.88 Q725.022 1830.3 727.059 1830.3 Q732.43 1830.3 735.624 1832.98 Q738.818 1835.67 738.818 1840.16 Q738.818 1842.29 738.008 1844.21 Q737.221 1846.11 735.115 1848.7 Q734.536 1849.37 731.434 1852.59 Q728.332 1855.78 722.684 1861.55 Z" fill="#000000" fill-rule="nonzero" fill-opacity="1" /><path clip-path="url(#clip590)" d="M1193.18 1846.85 Q1196.53 1847.57 1198.41 1849.84 Q1200.31 1852.1 1200.31 1855.44 Q1200.31 1860.55 1196.79 1863.35 Q1193.27 1866.15 1186.79 1866.15 Q1184.61 1866.15 1182.3 1865.71 Q1180.01 1865.3 1177.55 1864.44 L1177.55 1859.93 Q1179.5 1861.06 1181.81 1861.64 Q1184.13 1862.22 1186.65 1862.22 Q1191.05 1862.22 1193.34 1860.48 Q1195.65 1858.75 1195.65 1855.44 Q1195.65 1852.38 1193.5 1850.67 Q1191.37 1848.93 1187.55 1848.93 L1183.52 1848.93 L1183.52 1845.09 L1187.74 1845.09 Q1191.19 1845.09 1193.01 1843.72 Q1194.84 1842.34 1194.84 1839.74 Q1194.84 1837.08 1192.95 1835.67 Q1191.07 1834.23 1187.55 1834.23 Q1185.63 1834.23 1183.43 1834.65 Q1181.23 1835.07 1178.59 1835.95 L1178.59 1831.78 Q1181.26 1831.04 1183.57 1830.67 Q1185.91 1830.3 1187.97 1830.3 Q1193.29 1830.3 1196.39 1832.73 Q1199.5 1835.14 1199.5 1839.26 Q1199.5 1842.13 1197.85 1844.12 Q1196.21 1846.09 1193.18 1846.85 Z" fill="#000000" fill-rule="nonzero" fill-opacity="1" /><path clip-path="url(#clip590)" d="M1652.84 1835 L1641.03 1853.45 L1652.84 1853.45 L1652.84 1835 M1651.61 1830.92 L1657.49 1830.92 L1657.49 1853.45 L1662.42 1853.45 L1662.42 1857.34 L1657.49 1857.34 L1657.49 1865.48 L1652.84 1865.48 L1652.84 1857.34 L1637.23 1857.34 L1637.23 1852.82 L1651.61 1830.92 Z" fill="#000000" fill-rule="nonzero" fill-opacity="1" /><path clip-path="url(#clip590)" d="M2101 1830.92 L2119.36 1830.92 L2119.36 1834.86 L2105.28 1834.86 L2105.28 1843.33 Q2106.3 1842.98 2107.32 1842.82 Q2108.34 1842.64 2109.36 1842.64 Q2115.15 1842.64 2118.52 1845.81 Q2121.9 1848.98 2121.9 1854.4 Q2121.9 1859.97 2118.43 1863.08 Q2114.96 1866.15 2108.64 1866.15 Q2106.46 1866.15 2104.2 1865.78 Q2101.95 1865.41 2099.54 1864.67 L2099.54 1859.97 Q2101.63 1861.11 2103.85 1861.66 Q2106.07 1862.22 2108.55 1862.22 Q2112.55 1862.22 2114.89 1860.11 Q2117.23 1858.01 2117.23 1854.4 Q2117.23 1850.78 2114.89 1848.68 Q2112.55 1846.57 2108.55 1846.57 Q2106.67 1846.57 2104.8 1846.99 Q2102.95 1847.4 2101 1848.28 L2101 1830.92 Z" fill="#000000" fill-rule="nonzero" fill-opacity="1" /><path clip-path="url(#clip590)" d="M2572.03 1846.34 Q2568.88 1846.34 2567.03 1848.49 Q2565.2 1850.65 2565.2 1854.4 Q2565.2 1858.12 2567.03 1860.3 Q2568.88 1862.45 2572.03 1862.45 Q2575.17 1862.45 2577 1860.3 Q2578.86 1858.12 2578.86 1854.4 Q2578.86 1850.65 2577 1848.49 Q2575.17 1846.34 2572.03 1846.34 M2581.31 1831.69 L2581.31 1835.95 Q2579.55 1835.11 2577.74 1834.67 Q2575.96 1834.23 2574.2 1834.23 Q2569.57 1834.23 2567.12 1837.36 Q2564.69 1840.48 2564.34 1846.8 Q2565.71 1844.79 2567.77 1843.72 Q2569.83 1842.64 2572.3 1842.64 Q2577.51 1842.64 2580.52 1845.81 Q2583.55 1848.96 2583.55 1854.4 Q2583.55 1859.72 2580.41 1862.94 Q2577.26 1866.15 2572.03 1866.15 Q2566.03 1866.15 2562.86 1861.57 Q2559.69 1856.96 2559.69 1848.24 Q2559.69 1840.04 2563.58 1835.18 Q2567.47 1830.3 2574.02 1830.3 Q2575.78 1830.3 2577.56 1830.65 Q2579.36 1830.99 2581.31 1831.69 Z" fill="#000000" fill-rule="nonzero" fill-opacity="1" /><polyline clip-path="url(#clip592)" style="stroke:#000000; stroke-linecap:round; stroke-linejoin:round; stroke-width:2; stroke-opacity:0.1; fill:none" points="197.999,1800.78 2640.76,1800.78 "/>
<polyline clip-path="url(#clip592)" style="stroke:#000000; stroke-linecap:round; stroke-linejoin:round; stroke-width:2; stroke-opacity:0.1; fill:none" points="197.999,635.756 2640.76,635.756 "/>
<polyline clip-path="url(#clip590)" style="stroke:#000000; stroke-linecap:round; stroke-linejoin:round; stroke-width:4; stroke-opacity:1; fill:none" points="197.999,1800.78 197.999,47.2441 "/>
<polyline clip-path="url(#clip590)" style="stroke:#000000; stroke-linecap:round; stroke-linejoin:round; stroke-width:4; stroke-opacity:1; fill:none" points="197.999,1800.78 216.897,1800.78 "/>
<polyline clip-path="url(#clip590)" style="stroke:#000000; stroke-linecap:round; stroke-linejoin:round; stroke-width:4; stroke-opacity:1; fill:none" points="197.999,635.756 216.897,635.756 "/>
<path clip-path="url(#clip590)" d="M50.2234 1820.57 L57.8623 1820.57 L57.8623 1794.21 L49.5521 1795.87 L49.5521 1791.61 L57.816 1789.95 L62.4919 1789.95 L62.4919 1820.57 L70.1307 1820.57 L70.1307 1824.51 L50.2234 1824.51 L50.2234 1820.57 Z" fill="#000000" fill-rule="nonzero" fill-opacity="1" /><path clip-path="url(#clip590)" d="M89.5751 1793.03 Q85.964 1793.03 84.1353 1796.59 Q82.3297 1800.13 82.3297 1807.26 Q82.3297 1814.37 84.1353 1817.93 Q85.964 1821.47 89.5751 1821.47 Q93.2093 1821.47 95.0148 1817.93 Q96.8435 1814.37 96.8435 1807.26 Q96.8435 1800.13 95.0148 1796.59 Q93.2093 1793.03 89.5751 1793.03 M89.5751 1789.32 Q95.3852 1789.32 98.4408 1793.93 Q101.519 1798.51 101.519 1807.26 Q101.519 1815.99 98.4408 1820.59 Q95.3852 1825.18 89.5751 1825.18 Q83.7649 1825.18 80.6862 1820.59 Q77.6307 1815.99 77.6307 1807.26 Q77.6307 1798.51 80.6862 1793.93 Q83.7649 1789.32 89.5751 1789.32 Z" fill="#000000" fill-rule="nonzero" fill-opacity="1" /><path clip-path="url(#clip590)" d="M111.224 1771.52 Q108.29 1771.52 106.804 1774.41 Q105.337 1777.29 105.337 1783.08 Q105.337 1788.86 106.804 1791.76 Q108.29 1794.63 111.224 1794.63 Q114.177 1794.63 115.644 1791.76 Q117.13 1788.86 117.13 1783.08 Q117.13 1777.29 115.644 1774.41 Q114.177 1771.52 111.224 1771.52 M111.224 1768.51 Q115.945 1768.51 118.428 1772.25 Q120.929 1775.98 120.929 1783.08 Q120.929 1790.18 118.428 1793.92 Q115.945 1797.64 111.224 1797.64 Q106.503 1797.64 104.002 1793.92 Q101.519 1790.18 101.519 1783.08 Q101.519 1775.98 104.002 1772.25 Q106.503 1768.51 111.224 1768.51 Z" fill="#000000" fill-rule="nonzero" fill-opacity="1" /><path clip-path="url(#clip590)" d="M127.606 1792.32 L131.574 1792.32 L131.574 1797.1 L127.606 1797.1 L127.606 1792.32 Z" fill="#000000" fill-rule="nonzero" fill-opacity="1" /><path clip-path="url(#clip590)" d="M147.975 1771.52 Q145.041 1771.52 143.555 1774.41 Q142.088 1777.29 142.088 1783.08 Q142.088 1788.86 143.555 1791.76 Q145.041 1794.63 147.975 1794.63 Q150.927 1794.63 152.394 1791.76 Q153.88 1788.86 153.88 1783.08 Q153.88 1777.29 152.394 1774.41 Q150.927 1771.52 147.975 1771.52 M147.975 1768.51 Q152.695 1768.51 155.178 1772.25 Q157.679 1775.98 157.679 1783.08 Q157.679 1790.18 155.178 1793.92 Q152.695 1797.64 147.975 1797.64 Q143.254 1797.64 140.752 1793.92 Q138.27 1790.18 138.27 1783.08 Q138.27 1775.98 140.752 1772.25 Q143.254 1768.51 147.975 1768.51 Z" fill="#000000" fill-rule="nonzero" fill-opacity="1" /><path clip-path="url(#clip590)" d="M51.5212 655.548 L59.16 655.548 L59.16 629.183 L50.8499 630.849 L50.8499 626.59 L59.1137 624.923 L63.7896 624.923 L63.7896 655.548 L71.4285 655.548 L71.4285 659.483 L51.5212 659.483 L51.5212 655.548 Z" fill="#000000" fill-rule="nonzero" fill-opacity="1" /><path clip-path="url(#clip590)" d="M90.8728 628.002 Q87.2617 628.002 85.433 631.567 Q83.6275 635.108 83.6275 642.238 Q83.6275 649.344 85.433 652.909 Q87.2617 656.451 90.8728 656.451 Q94.507 656.451 96.3126 652.909 Q98.1413 649.344 98.1413 642.238 Q98.1413 635.108 96.3126 631.567 Q94.507 628.002 90.8728 628.002 M90.8728 624.298 Q96.6829 624.298 99.7385 628.905 Q102.817 633.488 102.817 642.238 Q102.817 650.965 99.7385 655.571 Q96.6829 660.155 90.8728 660.155 Q85.0626 660.155 81.984 655.571 Q78.9284 650.965 78.9284 642.238 Q78.9284 633.488 81.984 628.905 Q85.0626 624.298 90.8728 624.298 Z" fill="#000000" fill-rule="nonzero" fill-opacity="1" /><path clip-path="url(#clip590)" d="M112.522 606.494 Q109.588 606.494 108.102 609.391 Q106.635 612.268 106.635 618.061 Q106.635 623.835 108.102 626.732 Q109.588 629.609 112.522 629.609 Q115.475 629.609 116.942 626.732 Q118.428 623.835 118.428 618.061 Q118.428 612.268 116.942 609.391 Q115.475 606.494 112.522 606.494 M112.522 603.485 Q117.243 603.485 119.725 607.228 Q122.227 610.952 122.227 618.061 Q122.227 625.152 119.725 628.894 Q117.243 632.618 112.522 632.618 Q107.801 632.618 105.3 628.894 Q102.817 625.152 102.817 618.061 Q102.817 610.952 105.3 607.228 Q107.801 603.485 112.522 603.485 Z" fill="#000000" fill-rule="nonzero" fill-opacity="1" /><path clip-path="url(#clip590)" d="M128.904 627.296 L132.872 627.296 L132.872 632.073 L128.904 632.073 L128.904 627.296 Z" fill="#000000" fill-rule="nonzero" fill-opacity="1" /><path clip-path="url(#clip590)" d="M144.42 628.876 L157.679 628.876 L157.679 632.073 L139.85 632.073 L139.85 628.876 Q142.013 626.637 145.737 622.876 Q149.479 619.096 150.438 618.005 Q152.263 615.955 152.977 614.544 Q153.711 613.115 153.711 611.742 Q153.711 609.504 152.131 608.093 Q150.57 606.682 148.05 606.682 Q146.263 606.682 144.27 607.303 Q142.295 607.924 140.038 609.184 L140.038 605.347 Q142.332 604.426 144.326 603.955 Q146.32 603.485 147.975 603.485 Q152.338 603.485 154.934 605.667 Q157.529 607.849 157.529 611.497 Q157.529 613.228 156.871 614.789 Q156.231 616.331 154.52 618.437 Q154.05 618.983 151.529 621.597 Q149.009 624.192 144.42 628.876 Z" fill="#000000" fill-rule="nonzero" fill-opacity="1" /><polyline clip-path="url(#clip592)" style="stroke:#009af9; stroke-linecap:round; stroke-linejoin:round; stroke-width:4; stroke-opacity:1; fill:none" points="267.134,1800.78 728.032,1800.78 1188.93,1800.78 1649.83,1800.78 2110.72,1800.78 2571.62,1800.78 "/>
<circle clip-path="url(#clip592)" cx="267.134" cy="1800.78" r="14.4" fill="#009af9" fill-rule="evenodd" fill-opacity="1" stroke="#000000" stroke-opacity="1" stroke-width="3.84"/>
<circle clip-path="url(#clip592)" cx="728.032" cy="1800.78" r="14.4" fill="#009af9" fill-rule="evenodd" fill-opacity="1" stroke="#000000" stroke-opacity="1" stroke-width="3.84"/>
<circle clip-path="url(#clip592)" cx="1188.93" cy="1800.78" r="14.4" fill="#009af9" fill-rule="evenodd" fill-opacity="1" stroke="#000000" stroke-opacity="1" stroke-width="3.84"/>
<circle clip-path="url(#clip592)" cx="1649.83" cy="1800.78" r="14.4" fill="#009af9" fill-rule="evenodd" fill-opacity="1" stroke="#000000" stroke-opacity="1" stroke-width="3.84"/>
<circle clip-path="url(#clip592)" cx="2110.72" cy="1800.78" r="14.4" fill="#009af9" fill-rule="evenodd" fill-opacity="1" stroke="#000000" stroke-opacity="1" stroke-width="3.84"/>
<circle clip-path="url(#clip592)" cx="2571.62" cy="1800.78" r="14.4" fill="#009af9" fill-rule="evenodd" fill-opacity="1" stroke="#000000" stroke-opacity="1" stroke-width="3.84"/>
<path clip-path="url(#clip590)" d="M2262.62 209.375 L2559.33 209.375 L2559.33 105.695 L2262.62 105.695  Z" fill="#ffffff" fill-rule="evenodd" fill-opacity="1"/>
<polyline clip-path="url(#clip590)" style="stroke:#000000; stroke-linecap:round; stroke-linejoin:round; stroke-width:4; stroke-opacity:1; fill:none" points="2262.62,209.375 2559.33,209.375 2559.33,105.695 2262.62,105.695 2262.62,209.375 "/>
<polyline clip-path="url(#clip590)" style="stroke:#009af9; stroke-linecap:round; stroke-linejoin:round; stroke-width:4; stroke-opacity:1; fill:none" points="2289.77,157.535 2452.62,157.535 "/>
<circle clip-path="url(#clip590)" cx="2371.19" cy="157.535" r="22.6181" fill="#009af9" fill-rule="evenodd" fill-opacity="1" stroke="#000000" stroke-opacity="1" stroke-width="6.144"/>
<path clip-path="url(#clip590)" d="M2493.6 177.223 Q2491.8 181.852 2490.08 183.264 Q2488.37 184.676 2485.5 184.676 L2482.1 184.676 L2482.1 181.112 L2484.6 181.112 Q2486.36 181.112 2487.33 180.278 Q2488.3 179.445 2489.48 176.343 L2490.24 174.399 L2479.76 148.889 L2484.27 148.889 L2492.37 169.167 L2500.48 148.889 L2504.99 148.889 L2493.6 177.223 Z" fill="#000000" fill-rule="nonzero" fill-opacity="1" /><path clip-path="url(#clip590)" d="M2512.28 170.88 L2519.92 170.88 L2519.92 144.515 L2511.61 146.181 L2511.61 141.922 L2519.87 140.255 L2524.55 140.255 L2524.55 170.88 L2532.19 170.88 L2532.19 174.815 L2512.28 174.815 L2512.28 170.88 Z" fill="#000000" fill-rule="nonzero" fill-opacity="1" /></svg>
