<?xml version="1.0" encoding="utf-8"?>
<svg xmlns="http://www.w3.org/2000/svg" xmlns:xlink="http://www.w3.org/1999/xlink" width="672" height="480" viewBox="0 0 2688 1920">
<defs>
  <clipPath id="clip550">
    <rect x="0" y="0" width="2688" height="1920"/>
  </clipPath>
</defs>
<path clip-path="url(#clip550)" d="M0 1920 L2688 1920 L2688 0 L0 0  Z" fill="#ffffff" fill-rule="evenodd" fill-opacity="1"/>
<defs>
  <clipPath id="clip551">
    <rect x="537" y="0" width="1883" height="1883"/>
  </clipPath>
</defs>
<path clip-path="url(#clip550)" d="M159.478 1800.78 L2640.76 1800.78 L2640.76 47.2441 L159.478 47.2441  Z" fill="#ffffff" fill-rule="evenodd" fill-opacity="1"/>
<defs>
  <clipPath id="clip552">
    <rect x="159" y="47" width="2482" height="1755"/>
  </clipPath>
</defs>
<polyline clip-path="url(#clip552)" style="stroke:#000000; stroke-linecap:round; stroke-linejoin:round; stroke-width:2; stroke-opacity:0.1; fill:none" points="203.039,1800.78 203.039,47.2441 "/>
<polyline clip-path="url(#clip552)" style="stroke:#000000; stroke-linecap:round; stroke-linejoin:round; stroke-width:2; stroke-opacity:0.1; fill:none" points="699.294,1800.78 699.294,47.2441 "/>
<polyline clip-path="url(#clip552)" style="stroke:#000000; stroke-linecap:round; stroke-linejoin:round; stroke-width:2; stroke-opacity:0.1; fill:none" points="1195.55,1800.78 1195.55,47.2441 "/>
<polyline clip-path="url(#clip552)" style="stroke:#000000; stroke-linecap:round; stroke-linejoin:round; stroke-width:2; stroke-opacity:0.1; fill:none" points="1691.81,1800.78 1691.81,47.2441 "/>
<polyline clip-path="url(#clip552)" style="stroke:#000000; stroke-linecap:round; stroke-linejoin:round; stroke-width:2; stroke-opacity:0.1; fill:none" points="2188.06,1800.78 2188.06,47.2441 "/>
<polyline clip-path="url(#clip550)" style="stroke:#000000; stroke-linecap:round; stroke-linejoin:round; stroke-width:4; stroke-opacity:1; fill:none" points="159.478,1800.78 2640.76,1800.78 "/>
<polyline clip-path="url(#clip550)" style="stroke:#000000; stroke-linecap:round; stroke-linejoin:round; stroke-width:4; stroke-opacity:1; fill:none" points="203.039,1800.78 203.039,1781.88 "/>
<polyline clip-path="url(#clip550)" style="stroke:#000000; stroke-linecap:round; stroke-linejoin:round; stroke-width:4; stroke-opacity:1; fill:none" points="699.294,1800.78 699.294,1781.88 "/>
<polyline clip-path="url(#clip550)" style="stroke:#000000; stroke-linecap:round; stroke-linejoin:round; stroke-width:4; stroke-opacity:1; fill:none" points="1195.55,1800.78 1195.55,1781.88 "/>
<polyline clip-path="url(#clip550)" style="stroke:#000000; stroke-linecap:round; stroke-linejoin:round; stroke-width:4; stroke-opacity:1; fill:none" points="1691.81,1800.78 1691.81,1781.88 "/>
<polyline clip-path="url(#clip550)" style="stroke:#000000; stroke-linecap:round; stroke-linejoin:round; stroke-width:4; stroke-opacity:1; fill:none" points="2188.06,1800.78 2188.06,1781.88 "/>
<path clip-path="url(#clip550)" d="M180.469 1834 Q176.858 1834 175.03 1837.57 Q173.224 1841.11 173.224 1848.24 Q173.224 1855.34 175.03 1858.91 Q176.858 1862.45 180.469 1862.45 Q184.104 1862.45 185.909 1858.91 Q187.738 1855.34 187.738 1848.24 Q187.738 1841.11 185.909 1837.57 Q184.104 1834 180.469 1834 M180.469 1830.3 Q186.28 1830.3 189.335 1834.9 Q192.414 1839.49 192.414 1848.24 Q192.414 1856.96 189.335 1861.57 Q186.28 1866.15 180.469 1866.15 Q174.659 1866.15 171.581 1861.57 Q168.525 1856.96 168.525 1848.24 Q168.525 1839.49 171.581 1834.9 Q174.659 1830.3 180.469 1830.3 Z" fill="#000000" fill-rule="nonzero" fill-opacity="1" /><path clip-path="url(#clip550)" d="M200.631 1859.6 L205.516 1859.6 L205.516 1865.48 L200.631 1865.48 L200.631 1859.6 Z" fill="#000000" fill-rule="nonzero" fill-opacity="1" /><path clip-path="url(#clip550)" d="M225.701 1849.07 Q222.367 1849.07 220.446 1850.85 Q218.548 1852.64 218.548 1855.76 Q218.548 1858.89 220.446 1860.67 Q222.367 1862.45 225.701 1862.45 Q229.034 1862.45 230.955 1860.67 Q232.877 1858.86 232.877 1855.76 Q232.877 1852.64 230.955 1850.85 Q229.057 1849.07 225.701 1849.07 M221.025 1847.08 Q218.016 1846.34 216.326 1844.28 Q214.659 1842.22 214.659 1839.26 Q214.659 1835.11 217.599 1832.71 Q220.562 1830.3 225.701 1830.3 Q230.863 1830.3 233.802 1832.71 Q236.742 1835.11 236.742 1839.26 Q236.742 1842.22 235.052 1844.28 Q233.386 1846.34 230.4 1847.08 Q233.779 1847.87 235.654 1850.16 Q237.552 1852.45 237.552 1855.76 Q237.552 1860.78 234.474 1863.47 Q231.418 1866.15 225.701 1866.15 Q219.983 1866.15 216.904 1863.47 Q213.849 1860.78 213.849 1855.76 Q213.849 1852.45 215.747 1850.16 Q217.645 1847.87 221.025 1847.08 M219.312 1839.7 Q219.312 1842.38 220.978 1843.89 Q222.668 1845.39 225.701 1845.39 Q228.71 1845.39 230.4 1843.89 Q232.113 1842.38 232.113 1839.7 Q232.113 1837.01 230.4 1835.51 Q228.71 1834 225.701 1834 Q222.668 1834 220.978 1835.51 Q219.312 1837.01 219.312 1839.7 Z" fill="#000000" fill-rule="nonzero" fill-opacity="1" /><path clip-path="url(#clip550)" d="M666.447 1861.55 L674.086 1861.55 L674.086 1835.18 L665.776 1836.85 L665.776 1832.59 L674.04 1830.92 L678.716 1830.92 L678.716 1861.55 L686.355 1861.55 L686.355 1865.48 L666.447 1865.48 L666.447 1861.55 Z" fill="#000000" fill-rule="nonzero" fill-opacity="1" /><path clip-path="url(#clip550)" d="M695.799 1859.6 L700.683 1859.6 L700.683 1865.48 L695.799 1865.48 L695.799 1859.6 Z" fill="#000000" fill-rule="nonzero" fill-opacity="1" /><path clip-path="url(#clip550)" d="M720.868 1834 Q717.257 1834 715.428 1837.57 Q713.623 1841.11 713.623 1848.24 Q713.623 1855.34 715.428 1858.91 Q717.257 1862.45 720.868 1862.45 Q724.503 1862.45 726.308 1858.91 Q728.137 1855.34 728.137 1848.24 Q728.137 1841.11 726.308 1837.57 Q724.503 1834 720.868 1834 M720.868 1830.3 Q726.678 1830.3 729.734 1834.9 Q732.813 1839.49 732.813 1848.24 Q732.813 1856.96 729.734 1861.57 Q726.678 1866.15 720.868 1866.15 Q715.058 1866.15 711.979 1861.57 Q708.924 1856.96 708.924 1848.24 Q708.924 1839.49 711.979 1834.9 Q715.058 1830.3 720.868 1830.3 Z" fill="#000000" fill-rule="nonzero" fill-opacity="1" /><path clip-path="url(#clip550)" d="M1163.5 1861.55 L1171.14 1861.55 L1171.14 1835.18 L1162.83 1836.85 L1162.83 1832.59 L1171.09 1830.92 L1175.77 1830.92 L1175.77 1861.55 L1183.41 1861.55 L1183.41 1865.48 L1163.5 1865.48 L1163.5 1861.55 Z" fill="#000000" fill-rule="nonzero" fill-opacity="1" /><path clip-path="url(#clip550)" d="M1192.85 1859.6 L1197.74 1859.6 L1197.74 1865.48 L1192.85 1865.48 L1192.85 1859.6 Z" fill="#000000" fill-rule="nonzero" fill-opacity="1" /><path clip-path="url(#clip550)" d="M1211.95 1861.55 L1228.27 1861.55 L1228.27 1865.48 L1206.33 1865.48 L1206.33 1861.55 Q1208.99 1858.79 1213.57 1854.16 Q1218.18 1849.51 1219.36 1848.17 Q1221.6 1845.65 1222.48 1843.91 Q1223.39 1842.15 1223.39 1840.46 Q1223.39 1837.71 1221.44 1835.97 Q1219.52 1834.23 1216.42 1834.23 Q1214.22 1834.23 1211.77 1835 Q1209.33 1835.76 1206.56 1837.31 L1206.56 1832.59 Q1209.38 1831.46 1211.83 1830.88 Q1214.29 1830.3 1216.33 1830.3 Q1221.7 1830.3 1224.89 1832.98 Q1228.08 1835.67 1228.08 1840.16 Q1228.08 1842.29 1227.27 1844.21 Q1226.49 1846.11 1224.38 1848.7 Q1223.8 1849.37 1220.7 1852.59 Q1217.6 1855.78 1211.95 1861.55 Z" fill="#000000" fill-rule="nonzero" fill-opacity="1" /><path clip-path="url(#clip550)" d="M1658.72 1861.55 L1666.35 1861.55 L1666.35 1835.18 L1658.04 1836.85 L1658.04 1832.59 L1666.31 1830.92 L1670.98 1830.92 L1670.98 1861.55 L1678.62 1861.55 L1678.62 1865.48 L1658.72 1865.48 L1658.72 1861.55 Z" fill="#000000" fill-rule="nonzero" fill-opacity="1" /><path clip-path="url(#clip550)" d="M1688.07 1859.6 L1692.95 1859.6 L1692.95 1865.48 L1688.07 1865.48 L1688.07 1859.6 Z" fill="#000000" fill-rule="nonzero" fill-opacity="1" /><path clip-path="url(#clip550)" d="M1715.98 1835 L1704.18 1853.45 L1715.98 1853.45 L1715.98 1835 M1714.76 1830.92 L1720.64 1830.92 L1720.64 1853.45 L1725.57 1853.45 L1725.57 1857.34 L1720.64 1857.34 L1720.64 1865.48 L1715.98 1865.48 L1715.98 1857.34 L1700.38 1857.34 L1700.38 1852.82 L1714.76 1830.92 Z" fill="#000000" fill-rule="nonzero" fill-opacity="1" /><path clip-path="url(#clip550)" d="M2155.13 1861.55 L2162.77 1861.55 L2162.77 1835.18 L2154.46 1836.85 L2154.46 1832.59 L2162.73 1830.92 L2167.4 1830.92 L2167.4 1861.55 L2175.04 1861.55 L2175.04 1865.48 L2155.13 1865.48 L2155.13 1861.55 Z" fill="#000000" fill-rule="nonzero" fill-opacity="1" /><path clip-path="url(#clip550)" d="M2184.48 1859.6 L2189.37 1859.6 L2189.37 1865.48 L2184.48 1865.48 L2184.48 1859.6 Z" fill="#000000" fill-rule="nonzero" fill-opacity="1" /><path clip-path="url(#clip550)" d="M2210.13 1846.34 Q2206.98 1846.34 2205.13 1848.49 Q2203.3 1850.65 2203.3 1854.4 Q2203.3 1858.12 2205.13 1860.3 Q2206.98 1862.45 2210.13 1862.45 Q2213.28 1862.45 2215.11 1860.3 Q2216.96 1858.12 2216.96 1854.4 Q2216.96 1850.65 2215.11 1848.49 Q2213.28 1846.34 2210.13 1846.34 M2219.41 1831.69 L2219.41 1835.95 Q2217.66 1835.11 2215.85 1834.67 Q2214.07 1834.23 2212.31 1834.23 Q2207.68 1834.23 2205.23 1837.36 Q2202.79 1840.48 2202.45 1846.8 Q2203.81 1844.79 2205.87 1843.72 Q2207.93 1842.64 2210.41 1842.64 Q2215.62 1842.64 2218.63 1845.81 Q2221.66 1848.96 2221.66 1854.4 Q2221.66 1859.72 2218.51 1862.94 Q2215.36 1866.15 2210.13 1866.15 Q2204.14 1866.15 2200.97 1861.57 Q2197.79 1856.96 2197.79 1848.24 Q2197.79 1840.04 2201.68 1835.18 Q2205.57 1830.3 2212.12 1830.3 Q2213.88 1830.3 2215.66 1830.65 Q2217.47 1830.99 2219.41 1831.69 Z" fill="#000000" fill-rule="nonzero" fill-opacity="1" /><polyline clip-path="url(#clip552)" style="stroke:#000000; stroke-linecap:round; stroke-linejoin:round; stroke-width:2; stroke-opacity:0.1; fill:none" points="159.478,1800.78 2640.76,1800.78 "/>
<polyline clip-path="url(#clip552)" style="stroke:#000000; stroke-linecap:round; stroke-linejoin:round; stroke-width:2; stroke-opacity:0.1; fill:none" points="159.478,1450.07 2640.76,1450.07 "/>
<polyline clip-path="url(#clip552)" style="stroke:#000000; stroke-linecap:round; stroke-linejoin:round; stroke-width:2; stroke-opacity:0.1; fill:none" points="159.478,1099.37 2640.76,1099.37 "/>
<polyline clip-path="url(#clip552)" style="stroke:#000000; stroke-linecap:round; stroke-linejoin:round; stroke-width:2; stroke-opacity:0.1; fill:none" points="159.478,748.658 2640.76,748.658 "/>
<polyline clip-path="url(#clip552)" style="stroke:#000000; stroke-linecap:round; stroke-linejoin:round; stroke-width:2; stroke-opacity:0.1; fill:none" points="159.478,397.951 2640.76,397.951 "/>
<polyline clip-path="url(#clip552)" style="stroke:#000000; stroke-linecap:round; stroke-linejoin:round; stroke-width:2; stroke-opacity:0.1; fill:none" points="159.478,47.2441 2640.76,47.2441 "/>
<polyline clip-path="url(#clip550)" style="stroke:#000000; stroke-linecap:round; stroke-linejoin:round; stroke-width:4; stroke-opacity:1; fill:none" points="159.478,1800.78 159.478,47.2441 "/>
<polyline clip-path="url(#clip550)" style="stroke:#000000; stroke-linecap:round; stroke-linejoin:round; stroke-width:4; stroke-opacity:1; fill:none" points="159.478,1800.78 178.376,1800.78 "/>
<polyline clip-path="url(#clip550)" style="stroke:#000000; stroke-linecap:round; stroke-linejoin:round; stroke-width:4; stroke-opacity:1; fill:none" points="159.478,1450.07 178.376,1450.07 "/>
<polyline clip-path="url(#clip550)" style="stroke:#000000; stroke-linecap:round; stroke-linejoin:round; stroke-width:4; stroke-opacity:1; fill:none" points="159.478,1099.37 178.376,1099.37 "/>
<polyline clip-path="url(#clip550)" style="stroke:#000000; stroke-linecap:round; stroke-linejoin:round; stroke-width:4; stroke-opacity:1; fill:none" points="159.478,748.658 178.376,748.658 "/>
<polyline clip-path="url(#clip550)" style="stroke:#000000; stroke-linecap:round; stroke-linejoin:round; stroke-width:4; stroke-opacity:1; fill:none" points="159.478,397.951 178.376,397.951 "/>
<polyline clip-path="url(#clip550)" style="stroke:#000000; stroke-linecap:round; stroke-linejoin:round; stroke-width:4; stroke-opacity:1; fill:none" points="159.478,47.2441 178.376,47.2441 "/>
<path clip-path="url(#clip550)" d="M61.9826 1786.58 Q58.3715 1786.58 56.5428 1790.14 Q54.7373 1793.68 54.7373 1800.81 Q54.7373 1807.92 56.5428 1811.49 Q58.3715 1815.03 61.9826 1815.03 Q65.6169 1815.03 67.4224 1811.49 Q69.2511 1807.92 69.2511 1800.81 Q69.2511 1793.68 67.4224 1790.14 Q65.6169 1786.58 61.9826 1786.58 M61.9826 1782.87 Q67.7928 1782.87 70.8483 1787.48 Q73.927 1792.06 73.927 1800.81 Q73.927 1809.54 70.8483 1814.15 Q67.7928 1818.73 61.9826 1818.73 Q56.1725 1818.73 53.0938 1814.15 Q50.0382 1809.54 50.0382 1800.81 Q50.0382 1792.06 53.0938 1787.48 Q56.1725 1782.87 61.9826 1782.87 Z" fill="#000000" fill-rule="nonzero" fill-opacity="1" /><path clip-path="url(#clip550)" d="M82.1445 1812.18 L87.0288 1812.18 L87.0288 1818.06 L82.1445 1818.06 L82.1445 1812.18 Z" fill="#000000" fill-rule="nonzero" fill-opacity="1" /><path clip-path="url(#clip550)" d="M107.214 1786.58 Q103.603 1786.58 101.774 1790.14 Q99.9685 1793.68 99.9685 1800.81 Q99.9685 1807.92 101.774 1811.49 Q103.603 1815.03 107.214 1815.03 Q110.848 1815.03 112.654 1811.49 Q114.482 1807.92 114.482 1800.81 Q114.482 1793.68 112.654 1790.14 Q110.848 1786.58 107.214 1786.58 M107.214 1782.87 Q113.024 1782.87 116.08 1787.48 Q119.158 1792.06 119.158 1800.81 Q119.158 1809.54 116.08 1814.15 Q113.024 1818.73 107.214 1818.73 Q101.404 1818.73 98.325 1814.15 Q95.2695 1809.54 95.2695 1800.81 Q95.2695 1792.06 98.325 1787.48 Q101.404 1782.87 107.214 1782.87 Z" fill="#000000" fill-rule="nonzero" fill-opacity="1" /><path clip-path="url(#clip550)" d="M63.5798 1435.87 Q59.9687 1435.87 58.14 1439.44 Q56.3345 1442.98 56.3345 1450.11 Q56.3345 1457.21 58.14 1460.78 Q59.9687 1464.32 63.5798 1464.32 Q67.2141 1464.32 69.0196 1460.78 Q70.8483 1457.21 70.8483 1450.11 Q70.8483 1442.98 69.0196 1439.44 Q67.2141 1435.87 63.5798 1435.87 M63.5798 1432.17 Q69.39 1432.17 72.4455 1436.77 Q75.5242 1441.36 75.5242 1450.11 Q75.5242 1458.83 72.4455 1463.44 Q69.39 1468.02 63.5798 1468.02 Q57.7697 1468.02 54.691 1463.44 Q51.6354 1458.83 51.6354 1450.11 Q51.6354 1441.36 54.691 1436.77 Q57.7697 1432.17 63.5798 1432.17 Z" fill="#000000" fill-rule="nonzero" fill-opacity="1" /><path clip-path="url(#clip550)" d="M83.7418 1461.47 L88.626 1461.47 L88.626 1467.35 L83.7418 1467.35 L83.7418 1461.47 Z" fill="#000000" fill-rule="nonzero" fill-opacity="1" /><path clip-path="url(#clip550)" d="M102.839 1463.42 L119.158 1463.42 L119.158 1467.35 L97.2139 1467.35 L97.2139 1463.42 Q99.8759 1460.66 104.459 1456.03 Q109.066 1451.38 110.246 1450.04 Q112.492 1447.51 113.371 1445.78 Q114.274 1444.02 114.274 1442.33 Q114.274 1439.57 112.33 1437.84 Q110.408 1436.1 107.306 1436.1 Q105.107 1436.1 102.654 1436.87 Q100.223 1437.63 97.4454 1439.18 L97.4454 1434.46 Q100.269 1433.32 102.723 1432.75 Q105.177 1432.17 107.214 1432.17 Q112.584 1432.17 115.779 1434.85 Q118.973 1437.54 118.973 1442.03 Q118.973 1444.16 118.163 1446.08 Q117.376 1447.98 115.269 1450.57 Q114.691 1451.24 111.589 1454.46 Q108.487 1457.65 102.839 1463.42 Z" fill="#000000" fill-rule="nonzero" fill-opacity="1" /><path clip-path="url(#clip550)" d="M61.4965 1085.16 Q57.8854 1085.16 56.0567 1088.73 Q54.2512 1092.27 54.2512 1099.4 Q54.2512 1106.51 56.0567 1110.07 Q57.8854 1113.61 61.4965 1113.61 Q65.1307 1113.61 66.9363 1110.07 Q68.765 1106.51 68.765 1099.4 Q68.765 1092.27 66.9363 1088.73 Q65.1307 1085.16 61.4965 1085.16 M61.4965 1081.46 Q67.3067 1081.46 70.3622 1086.07 Q73.4409 1090.65 73.4409 1099.4 Q73.4409 1108.13 70.3622 1112.73 Q67.3067 1117.32 61.4965 1117.32 Q55.6864 1117.32 52.6077 1112.73 Q49.5521 1108.13 49.5521 1099.4 Q49.5521 1090.65 52.6077 1086.07 Q55.6864 1081.46 61.4965 1081.46 Z" fill="#000000" fill-rule="nonzero" fill-opacity="1" /><path clip-path="url(#clip550)" d="M81.6584 1110.77 L86.5427 1110.77 L86.5427 1116.65 L81.6584 1116.65 L81.6584 1110.77 Z" fill="#000000" fill-rule="nonzero" fill-opacity="1" /><path clip-path="url(#clip550)" d="M109.575 1086.16 L97.7695 1104.61 L109.575 1104.61 L109.575 1086.16 M108.348 1082.09 L114.228 1082.09 L114.228 1104.61 L119.158 1104.61 L119.158 1108.5 L114.228 1108.5 L114.228 1116.65 L109.575 1116.65 L109.575 1108.5 L93.9732 1108.5 L93.9732 1103.98 L108.348 1082.09 Z" fill="#000000" fill-rule="nonzero" fill-opacity="1" /><path clip-path="url(#clip550)" d="M61.8206 734.457 Q58.2095 734.457 56.3808 738.022 Q54.5752 741.563 54.5752 748.693 Q54.5752 755.799 56.3808 759.364 Q58.2095 762.906 61.8206 762.906 Q65.4548 762.906 67.2604 759.364 Q69.0891 755.799 69.0891 748.693 Q69.0891 741.563 67.2604 738.022 Q65.4548 734.457 61.8206 734.457 M61.8206 730.753 Q67.6307 730.753 70.6863 735.36 Q73.765 739.943 73.765 748.693 Q73.765 757.42 70.6863 762.026 Q67.6307 766.609 61.8206 766.609 Q56.0104 766.609 52.9317 762.026 Q49.8762 757.42 49.8762 748.693 Q49.8762 739.943 52.9317 735.36 Q56.0104 730.753 61.8206 730.753 Z" fill="#000000" fill-rule="nonzero" fill-opacity="1" /><path clip-path="url(#clip550)" d="M81.9825 760.059 L86.8667 760.059 L86.8667 765.938 L81.9825 765.938 L81.9825 760.059 Z" fill="#000000" fill-rule="nonzero" fill-opacity="1" /><path clip-path="url(#clip550)" d="M107.631 746.795 Q104.482 746.795 102.631 748.948 Q100.802 751.1 100.802 754.85 Q100.802 758.577 102.631 760.753 Q104.482 762.906 107.631 762.906 Q110.779 762.906 112.607 760.753 Q114.459 758.577 114.459 754.85 Q114.459 751.1 112.607 748.948 Q110.779 746.795 107.631 746.795 M116.913 732.142 L116.913 736.401 Q115.154 735.568 113.348 735.128 Q111.566 734.688 109.806 734.688 Q105.177 734.688 102.723 737.813 Q100.293 740.938 99.9454 747.258 Q101.311 745.244 103.371 744.179 Q105.431 743.091 107.908 743.091 Q113.117 743.091 116.126 746.262 Q119.158 749.41 119.158 754.85 Q119.158 760.174 116.01 763.392 Q112.862 766.609 107.631 766.609 Q101.635 766.609 98.4639 762.026 Q95.2926 757.42 95.2926 748.693 Q95.2926 740.498 99.1815 735.637 Q103.07 730.753 109.621 730.753 Q111.38 730.753 113.163 731.1 Q114.968 731.448 116.913 732.142 Z" fill="#000000" fill-rule="nonzero" fill-opacity="1" /><path clip-path="url(#clip550)" d="M62.0752 383.75 Q58.4641 383.75 56.6354 387.315 Q54.8299 390.856 54.8299 397.986 Q54.8299 405.092 56.6354 408.657 Q58.4641 412.199 62.0752 412.199 Q65.7094 412.199 67.515 408.657 Q69.3437 405.092 69.3437 397.986 Q69.3437 390.856 67.515 387.315 Q65.7094 383.75 62.0752 383.75 M62.0752 380.046 Q67.8854 380.046 70.9409 384.653 Q74.0196 389.236 74.0196 397.986 Q74.0196 406.713 70.9409 411.319 Q67.8854 415.902 62.0752 415.902 Q56.2651 415.902 53.1864 411.319 Q50.1308 406.713 50.1308 397.986 Q50.1308 389.236 53.1864 384.653 Q56.2651 380.046 62.0752 380.046 Z" fill="#000000" fill-rule="nonzero" fill-opacity="1" /><path clip-path="url(#clip550)" d="M82.2371 409.352 L87.1214 409.352 L87.1214 415.231 L82.2371 415.231 L82.2371 409.352 Z" fill="#000000" fill-rule="nonzero" fill-opacity="1" /><path clip-path="url(#clip550)" d="M107.306 398.819 Q103.973 398.819 102.052 400.602 Q100.154 402.384 100.154 405.509 Q100.154 408.634 102.052 410.416 Q103.973 412.199 107.306 412.199 Q110.64 412.199 112.561 410.416 Q114.482 408.611 114.482 405.509 Q114.482 402.384 112.561 400.602 Q110.663 398.819 107.306 398.819 M102.631 396.828 Q99.6213 396.088 97.9315 394.028 Q96.2648 391.967 96.2648 389.004 Q96.2648 384.861 99.2046 382.454 Q102.168 380.046 107.306 380.046 Q112.468 380.046 115.408 382.454 Q118.348 384.861 118.348 389.004 Q118.348 391.967 116.658 394.028 Q114.992 396.088 112.005 396.828 Q115.385 397.615 117.26 399.907 Q119.158 402.199 119.158 405.509 Q119.158 410.532 116.08 413.217 Q113.024 415.902 107.306 415.902 Q101.589 415.902 98.5102 413.217 Q95.4547 410.532 95.4547 405.509 Q95.4547 402.199 97.3528 399.907 Q99.2509 397.615 102.631 396.828 M100.918 389.444 Q100.918 392.129 102.584 393.634 Q104.274 395.139 107.306 395.139 Q110.316 395.139 112.005 393.634 Q113.718 392.129 113.718 389.444 Q113.718 386.759 112.005 385.254 Q110.316 383.75 107.306 383.75 Q104.274 383.75 102.584 385.254 Q100.918 386.759 100.918 389.444 Z" fill="#000000" fill-rule="nonzero" fill-opacity="1" /><path clip-path="url(#clip550)" d="M52.7928 60.5889 L60.4317 60.5889 L60.4317 34.2233 L52.1216 35.89 L52.1216 31.6308 L60.3854 29.9641 L65.0613 29.9641 L65.0613 60.5889 L72.7002 60.5889 L72.7002 64.5241 L52.7928 64.5241 L52.7928 60.5889 Z" fill="#000000" fill-rule="nonzero" fill-opacity="1" /><path clip-path="url(#clip550)" d="M82.1445 58.6445 L87.0288 58.6445 L87.0288 64.5241 L82.1445 64.5241 L82.1445 58.6445 Z" fill="#000000" fill-rule="nonzero" fill-opacity="1" /><path clip-path="url(#clip550)" d="M107.214 33.0428 Q103.603 33.0428 101.774 36.6076 Q99.9685 40.1492 99.9685 47.2788 Q99.9685 54.3853 101.774 57.9501 Q103.603 61.4917 107.214 61.4917 Q110.848 61.4917 112.654 57.9501 Q114.482 54.3853 114.482 47.2788 Q114.482 40.1492 112.654 36.6076 Q110.848 33.0428 107.214 33.0428 M107.214 29.3391 Q113.024 29.3391 116.08 33.9456 Q119.158 38.5289 119.158 47.2788 Q119.158 56.0056 116.08 60.6121 Q113.024 65.1954 107.214 65.1954 Q101.404 65.1954 98.325 60.6121 Q95.2695 56.0056 95.2695 47.2788 Q95.2695 38.5289 98.325 33.9456 Q101.404 29.3391 107.214 29.3391 Z" fill="#000000" fill-rule="nonzero" fill-opacity="1" /><polyline clip-path="url(#clip552)" style="stroke:#009af9; stroke-linecap:round; stroke-linejoin:round; stroke-width:4; stroke-opacity:1; fill:none" points="159.478,3554.31 159.478,-1706.29 "/>
<path clip-path="url(#clip550)" d="M2257.49 209.375 L2558.05 209.375 L2558.05 105.695 L2257.49 105.695  Z" fill="#ffffff" fill-rule="evenodd" fill-opacity="1"/>
<polyline clip-path="url(#clip550)" style="stroke:#000000; stroke-linecap:round; stroke-linejoin:round; stroke-width:4; stroke-opacity:1; fill:none" points="2257.49,209.375 2558.05,209.375 2558.05,105.695 2257.49,105.695 2257.49,209.375 "/>
<polyline clip-path="url(#clip550)" style="stroke:#009af9; stroke-linecap:round; stroke-linejoin:round; stroke-width:4; stroke-opacity:1; fill:none" points="2285.06,157.535 2450.48,157.535 "/>
<path clip-path="url(#clip550)" d="M2491.89 177.223 Q2490.08 181.852 2488.37 183.264 Q2486.66 184.676 2483.79 184.676 L2480.38 184.676 L2480.38 181.112 L2482.88 181.112 Q2484.64 181.112 2485.62 180.278 Q2486.59 179.445 2487.77 176.343 L2488.53 174.399 L2478.05 148.889 L2482.56 148.889 L2490.66 169.167 L2498.76 148.889 L2503.28 148.889 L2491.89 177.223 Z" fill="#000000" fill-rule="nonzero" fill-opacity="1" /><path clip-path="url(#clip550)" d="M2510.57 170.88 L2518.21 170.88 L2518.21 144.515 L2509.9 146.181 L2509.9 141.922 L2518.16 140.255 L2522.84 140.255 L2522.84 170.88 L2530.48 170.88 L2530.48 174.815 L2510.57 174.815 L2510.57 170.88 Z" fill="#000000" fill-rule="nonzero" fill-opacity="1" /></svg>
